<?xml version="1.0" encoding="UTF-8" standalone="no"?>
<!-- Created with Inkscape (http://www.inkscape.org/) -->

<svg
   version="1.1"
   id="svg2"
   width="480"
   height="240"
   viewBox="0 0 480 240"
   sodipodi:docname="logo_vertical_frame_5.svg"
   inkscape:version="1.2.2 (b0a8486541, 2022-12-01)"
   inkscape:export-filename="logo_vertical.png"
   inkscape:export-xdpi="96"
   inkscape:export-ydpi="96"
   xmlns:inkscape="http://www.inkscape.org/namespaces/inkscape"
   xmlns:sodipodi="http://sodipodi.sourceforge.net/DTD/sodipodi-0.dtd"
   xmlns="http://www.w3.org/2000/svg"
   xmlns:svg="http://www.w3.org/2000/svg">
  <defs
     id="defs6" />
  <sodipodi:namedview
     id="namedview4"
     pagecolor="#ffffff"
     bordercolor="#999999"
     borderopacity="1"
     inkscape:pageshadow="0"
     inkscape:pageopacity="0"
     inkscape:pagecheckerboard="0"
     showgrid="false"
     inkscape:zoom="3.0196258"
     inkscape:cx="263.93999"
     inkscape:cy="122.36616"
     inkscape:window-width="1920"
     inkscape:window-height="1008"
     inkscape:window-x="0"
     inkscape:window-y="0"
     inkscape:window-maximized="1"
     inkscape:current-layer="g440"
     inkscape:showpageshadow="2"
     inkscape:deskcolor="#d1d1d1"
     inkscape:rotation="-90" />
  <g
     inkscape:groupmode="layer"
     inkscape:label="Image"
     id="g8"
     transform="translate(2.5588326,-0.04584074)">
    <rect
       style="vector-effect:non-scaling-stroke;fill:#00007e;fill-opacity:1;stroke:#00007e;stroke-width:0.00316386;stroke-opacity:1;-inkscape-stroke:hairline"
       id="rect18011"
       width="240"
       height="480"
       x="0.04584074"
       y="-477.44116"
       transform="rotate(90)" />
    <text
       xml:space="preserve"
       style="font-style:normal;font-variant:normal;font-weight:normal;font-stretch:normal;font-size:66.6667px;line-height:1.25;font-family:Dyuthi;-inkscape-font-specification:Dyuthi;fill:#f6ca23;fill-opacity:1;stroke:#f6ca23;stroke-width:1.2226;stroke-opacity:1"
       x="43.385639"
       y="-376.82333"
       id="text27376"
       transform="rotate(90)"><tspan
         sodipodi:role="line"
         id="tspan27374"
         x="43.385639"
         y="-376.82333"
         style="font-style:normal;font-variant:normal;font-weight:normal;font-stretch:normal;font-size:66.6667px;font-family:'Codename Coder Free 4F';-inkscape-font-specification:'Codename Coder Free 4F';fill:#f6ca23;fill-opacity:1;stroke:#f6ca23;stroke-width:1.2226;stroke-opacity:1">3773P</tspan></text>
    <text
       xml:space="preserve"
       style="font-style:normal;font-variant:normal;font-weight:normal;font-stretch:normal;font-size:42.6667px;line-height:1;font-family:Dyuthi;-inkscape-font-specification:Dyuthi;text-align:center;text-anchor:middle;fill:#f6ca23;fill-opacity:1;stroke:#f6ca23;stroke-width:1.00466;stroke-opacity:1"
       x="120.47292"
       y="-107.22636"
       id="text27376-3"
       transform="rotate(90)"><tspan
         sodipodi:role="line"
         id="tspan27374-6"
         x="120.47292"
         y="-107.22636"
         style="font-style:normal;font-variant:normal;font-weight:normal;font-stretch:normal;font-size:42.6667px;font-family:'Codename Coder Free 4F';-inkscape-font-specification:'Codename Coder Free 4F';text-align:center;text-anchor:middle;fill:#f6ca23;fill-opacity:1;stroke:#f6ca23;stroke-width:1.00466;stroke-opacity:1">Bowbots</tspan><tspan
         sodipodi:role="line"
         x="120.47292"
         y="-63.922672"
         style="font-style:normal;font-variant:normal;font-weight:normal;font-stretch:normal;font-size:42.6667px;font-family:'Codename Coder Free 4F';-inkscape-font-specification:'Codename Coder Free 4F';text-align:center;text-anchor:middle;fill:#f6ca23;fill-opacity:1;stroke:#f6ca23;stroke-width:1.00466;stroke-opacity:1"
         id="tspan408">Phosphorus</tspan></text>
    <g
       id="g440"
       transform="rotate(90,233.0915,236.32924)">
      <path
         style="fill:#ffffff;stroke:#ffffff;stroke-width:0.571869px;stroke-linecap:butt;stroke-linejoin:miter;stroke-opacity:1"
         d="m 101.88494,158.93465 8.67823,-1.40864 4.89981,-12.89875 18.13816,1.36629 2.02764,13.90696 8.61582,3.59693 10.86678,-9.05315 15.23547,10.88778 -5.50204,13.16032 5.66268,6.88371 14.42498,-2.58766 7.2144,17.02249 -11.90605,8.79877 2.00051,8.38205 13.32847,4.71039 -2.16812,19.07706 -13.65019,1.8564 -2.92489,7.57985 9.17068,11.27231 -11.27716,15.42754 -12.77117,-5.74182 -7.03684,5.58124 2.71471,14.44335 -16.8241,7.65144 -9.77144,-11.87578 -7.84971,1.55518 -5.51498,13.28641 -18.044788,-1.80297 -2.078252,-13.99171 -7.628279,-3.02105 -11.552829,9.26377 -15.169244,-11.6677 5.477208,-12.30202 -5.305876,-7.08877 -14.541162,2.43652 -7.300532,-17.25284 11.004351,-8.38631 -1.080383,-8.33021 -13.749908,-5.20869 2.113585,-18.71871 14.092207,-2.13277 3.061246,-7.68145 -9.291132,-11.29401 11.223051,-14.81074 12.971135,5.63508 6.668607,-5.82428 -2.380764,-14.26269 17.18249,-7.34933 z"
         id="path21529" />
      <circle
         style="fill:none;stroke:#00007e;stroke-width:2.01107;stroke-miterlimit:4;stroke-dasharray:none;stroke-opacity:1"
         id="path22034"
         cx="116.80808"
         cy="223.31393"
         r="43.574905" />
      <circle
         style="vector-effect:non-scaling-stroke;fill:#00007e;fill-opacity:1;stroke:#00007e;stroke-width:0.00150916;stroke-opacity:1;-inkscape-stroke:hairline"
         id="path21555"
         cx="116.84488"
         cy="223.14156"
         r="33.311195" />
      <g
         id="g6181"
         transform="matrix(0.3777033,0,0,0.3777033,-1.3009084,104.83835)">
        <path
           style="fill:#00007e;fill-opacity:1;stroke:#00007e;stroke-width:1px;stroke-linecap:butt;stroke-linejoin:miter;stroke-opacity:1"
           d="m 203.49049,246.9897 c 45.91546,-22.75778 138.22899,-34.7722 201.77163,-23.14022 7.11824,1.30305 15.50139,5.14042 21.82803,10.56662 6.32664,5.4262 6.32309,9.51746 10.78235,10.50919 9.54357,2.12248 18.95014,7.88843 26.57087,12.37229 21.9779,12.93127 27.65761,30.92065 24.36917,67.01298 -0.62322,5.42178 -5.21873,18.93756 -14.13679,17.84816 -12.32229,-1.50525 -17.16711,-13.31718 -21.91882,-15.14702 -45.51037,-13.62458 -77.78305,12.02838 -107.06712,35.63431 -10.84159,8.73942 -20.12215,18.00725 -29.48634,27.71674 -5.8722,6.08874 -16.14264,17.7295 -24.25242,16.37308 -6.42376,-1.07442 -8.80309,-4.11657 -9.49324,-11.32167 0.45123,0.24894 -13.51949,18.12014 -23.20315,10.87583 -9.15777,-6.8509 -9.81194,-13.98635 5.72273,-33.82969 17.43384,-22.26926 51.04307,-50.98988 51.04307,-50.98988 0,0 -41.55769,6.26287 -67.04113,20.6474 -25.26423,14.26079 -42.12584,33.1057 -52.2241,17.10536 -8.86392,-14.04456 30.41251,-38.87926 44.66932,-49.53937 14.25681,-10.66011 17.02352,-10.76772 17.02352,-10.76772 0,0 -24.09933,4.61586 -49.78903,19.49045 -9.13155,5.28726 -25.79815,10.92571 -31.14176,1.59091 -4.91107,-8.57917 9.2281,-18.72884 10.66652,-19.69324 1.48213,-0.99371 7.33711,-4.15552 7.33711,-4.15552 0,0 -28.9952,16.00038 -39.89727,19.31765 -17.79596,5.41493 -21.20234,-6.30383 -19.50156,-15.07502 4.1269,-14.69904 46.36307,-43.84296 67.36841,-53.40162 z"
           id="path860"
           sodipodi:nodetypes="cszsscscssscsscssscssscscc" />
        <g
           id="g846"
           transform="translate(0.09741646,-0.45638607)">
          <path
             style="fill:#ffffff;stroke:#ffffff;stroke-width:1px;stroke-linecap:butt;stroke-linejoin:miter;stroke-opacity:1"
             d="m 331.57039,312.86161 c -1.67642,0 -55.20197,50.95275 -63.01086,62.545 -7.38276,10.95967 -11.99885,17.07835 -9.33824,23.6418 1.79608,4.43074 7.74993,6.6482 15.65407,-2.0667 7.90415,-8.7149 31.31978,-30.56387 31.31978,-30.56387 -0.0718,-0.16003 -23.34424,27.26886 -18.1315,33.78913 3.55541,4.44723 8.8212,3.37968 19.62153,-7.48098 7.18771,-7.22786 25.52689,-26.99591 45.28844,-42.20258 13.61389,-10.476 27.72714,-18.21463 37.29939,-22.97038 27.21351,-13.5204 61.62604,-7.72949 68.47575,-2.78804 6.79466,4.90173 10.16929,10.38942 13.61761,11.16043 3.44831,0.771 12.87463,-2.93383 12.03504,-22.41438 -0.83648,-19.40825 0.36211,-36.20441 -19.94859,-49.5224 -19.33894,-12.6808 -27.41628,-13.33283 -30.24085,-14.53406 -1.28459,-0.59644 -3.45333,-2.4132 -5.51982,-4.66398 -1.58901,-1.73072 -4.3398,-5.4802 -6.17867,-7.326 -20.7358,-19.29477 -110.05654,-12.4966 -130.06034,-8.9642 -36.65089,6.47206 -84.33604,10.6554 -144.40868,63.84197 -1.74571,1.5456 -6.21144,6.2116 -7.089,12.89056 -0.66803,5.08428 7.1981,7.08227 14.26388,3.63315 23.60717,-11.52372 48.615,-21.99269 74.2925,-29.74342 1.31481,-0.18222 -47.13251,27.5907 -47.49294,37.54035 -0.19763,5.45567 8.41148,6.49594 21.22301,-0.62917 32.96384,-18.33278 61.59593,-24.67535 74.89228,-23.8718 0,0 -41.59842,23.93969 -56.29093,36.70477 -14.69251,12.76507 -24.25947,24.41317 -21.81993,27.99094 2.35885,3.45944 8.63869,5.78851 30.70127,-8.87389 26.0568,-17.31688 46.43027,-24.0596 71.72446,-29.2308 10.26295,-2.09818 29.12134,-5.89145 29.12134,-5.89145 z"
             id="path2305"
             sodipodi:nodetypes="cssscsssssssscscsssscsscssssc" />
          <path
             style="fill:#00007e;fill-opacity:1;stroke:#00007e;stroke-width:1px;stroke-linecap:butt;stroke-linejoin:miter;stroke-opacity:1"
             d="m 165.46165,284.68043 c 0,0 35.68955,-28.19322 87.95193,-42.35888 52.2624,-14.16566 100.46089,-14.13289 113.25328,-12.43878 12.79238,1.69412 48.44315,2.77138 53.93432,15.39079 1.00856,2.3178 4.9297,6.92764 11.36232,9.28063 17.03733,6.23209 44.43936,20.24131 44.98407,38.39428 0.74562,24.84822 0.78923,41.04793 -5.49928,33.58874 -6.2885,-7.45919 -28.11214,-16.07739 -61.4643,-10.43769 -34.17174,5.77828 -81.45997,44.13895 -94.52684,60.00979 -13.18739,16.01723 -31.6686,32.05379 -16.79994,9.26651 14.86867,-22.78728 40.25635,-45.15112 40.25635,-45.15112 0.002,-0.87695 -12.55955,6.08704 -25.52715,15.07192 -8.24166,5.71041 -16.75812,13.00087 -21.96004,17.15673 -11.7648,9.39899 -23.65853,25.75996 -26.44832,24.4089 -2.87685,-1.39322 0.87443,-8.32636 3.77822,-12.39018 11.82213,-16.54497 55.52881,-59.55368 68.71052,-68.99874 13.18171,-9.44506 15.58585,-10.63073 15.58585,-10.63073 0,0 -72.23949,5.68828 -107.42877,27.32052 -35.47595,21.80846 -48.0409,29.86439 -36.28089,15.48082 20.31099,-23.18856 64.83172,-48.04192 97.00143,-62.92253 0.32118,-0.10675 -36.87392,-1.81391 -69.8075,10.54289 -26.91065,10.09697 -48.22692,25.60809 -49.11751,20.2693 -1.30857,-7.84439 88.60412,-55.54548 85.87748,-48.90524 1.2204,-2.30676 -68.64933,10.55259 -106.88316,31.64555 -22.50833,12.41746 -32.02542,10.91636 -0.95207,-13.59348 z"
             id="path2340"
             sodipodi:nodetypes="cssssssssscssssscsccsscsc" />
          <path
             style="fill:#f6ca23;fill-opacity:1;stroke:#f6ca23;stroke-width:1px;stroke-linecap:butt;stroke-linejoin:miter;stroke-opacity:1"
             d="m 319.33266,239.57824 c 0,0 43.36609,4.91626 64.98048,7.90292 8.48537,1.1725 20.56273,5.5609 25.39547,3.93156 1.74521,-0.58839 -0.70906,-4.2445 -2.39871,-4.97733 -10.1651,-4.4088 -20.94217,-6.07299 -31.72604,-7.25145 -18.63989,-2.03696 -46.31451,-2.19265 -56.2512,0.3943 z"
             id="path6099"
             sodipodi:nodetypes="cassac" />
          <path
             style="fill:#f6ca23;fill-opacity:1;stroke:#f6ca23;stroke-width:1px;stroke-linecap:butt;stroke-linejoin:miter;stroke-opacity:1"
             d="m 379.44624,279.19944 c 0,0 30.70837,7.0922 36.62939,9.90887 5.92102,2.81667 8.73393,6.11288 1.60288,4.58935 -7.13106,-1.52353 -29.34763,-9.55312 -50.51318,-7.53463 -21.16555,2.01848 -31.46325,7.09577 -31.46325,7.09577 0,0 38.99771,-1.17816 51.81754,1.07571 12.81982,2.25388 27.71633,3.26001 16.70063,5.98145 -11.01569,2.72144 -25.14532,10.40129 -25.14532,10.40129 0,0 30.74531,-6.21363 45.63939,-4.85974 14.89407,1.3539 26.87073,2.78384 32.05837,4.82438 5.18764,2.04054 10.15588,4.13888 10.15588,4.13888 0,0 2.92578,-15.84939 -4.01294,-29.98097 -6.93873,-14.13159 -30.05412,-23.79273 -39.50484,-25.56462 -9.45073,-1.77189 -18.48222,7.21758 -23.82372,9.86511 -5.3415,2.64753 -13.40805,7.06997 -20.14083,10.05915 z"
             id="path6134"
             sodipodi:nodetypes="cssscsscsscsssc" />
          <path
             style="fill:#f6ca23;fill-opacity:1;stroke:#f6ca23;stroke-width:1px;stroke-linecap:butt;stroke-linejoin:miter;stroke-opacity:1"
             d="m 376.23663,265.69341 3.97684,0.0996 c 0,0 -5.97643,11.40472 -21.78639,13.27716 -15.80995,1.87244 -34.91228,-4.78095 -49.90379,-4.67347 l -14.99151,0.10747 c 0,0 5.34804,-7.20648 23.21024,-11.21816 15.93167,-3.5781 9.93655,-5.51752 -3.57601,-9.1015 -12.95518,-3.43614 -22.62966,-3.12932 -22.62966,-3.12932 0,0 18.12612,-5.12339 33.34172,-3.1243 15.2156,1.99909 7.51277,2.8569 9.89243,10.8926 2.37966,8.03571 7.41203,20.31564 24.95769,17.45092 9.00507,-1.47027 14.95842,-10.38906 17.50843,-10.58099 z"
             id="path6169"
             sodipodi:nodetypes="ccsscsscssscc" />
          <path
             style="fill:#ffffff;stroke:#ffffff;stroke-width:1px;stroke-linecap:butt;stroke-linejoin:miter;stroke-opacity:1"
             d="m 345.10024,255.81453 c -0.36138,2.68055 -0.77384,9.08219 5.09945,11.99835 8.10212,4.02281 16.37441,-1.11719 17.56043,-3.28505 1.18599,-2.16785 0.46803,-2.48402 0.46803,-2.48402 l -2.31566,0.12228 c 0,0 -5.00249,6.88926 -12.32281,2.65897 -3.16717,-1.63792 -4.49472,-5.09175 -4.3624,-7.79878 0.0761,-1.55708 -0.9213,-0.94385 -4.12704,-1.21175 z"
             id="path6598"
             sodipodi:nodetypes="csscccsc" />
          <path
             style="fill:#ffffff;stroke:none;stroke-width:1px;stroke-linecap:butt;stroke-linejoin:miter;stroke-opacity:1"
             d="m 352.58432,258.69359 c 0,0 3.04566,-1.0599 2.80336,1.69381 -0.24231,2.75371 -2.0943,1.68073 -2.64715,0.20611 -0.55285,-1.47462 -0.15621,-1.89992 -0.15621,-1.89992 z"
             id="path7407" />
          <path
             style="fill:#00007e;fill-opacity:1;stroke:#00007e;stroke-width:1px;stroke-linecap:butt;stroke-linejoin:miter;stroke-opacity:1"
             d="m 421.72187,266.91621 c -0.99515,0.5207 -2.53315,-0.40186 -4.90923,1.69986 -2.37608,2.10172 -4.02328,2.32688 -1.94988,5.18164 2.07341,2.85476 -5.13595,3.78054 -8.1893,3.04151 -3.05335,-0.73902 -3.54415,-2.08411 0.13675,-4.98348 3.68093,-2.89937 9.35665,-7.83493 12.66283,-7.66783 3.30619,0.16709 3.24399,2.20759 2.24883,2.7283 z"
             id="path7444"
             sodipodi:nodetypes="zsssssz" />
        </g>
      </g>
    </g>
  </g>
</svg>
