<?xml version="1.0" encoding="UTF-8" standalone="no"?>
<svg
   id="mdi-power"
   viewBox="0 0 24 24"
   version="1.1"
   sodipodi:docname="power.svg"
   inkscape:version="1.1.2 (0a00cf5339, 2022-02-04)"
   xmlns:inkscape="http://www.inkscape.org/namespaces/inkscape"
   xmlns:sodipodi="http://sodipodi.sourceforge.net/DTD/sodipodi-0.dtd"
   xmlns="http://www.w3.org/2000/svg"
   xmlns:svg="http://www.w3.org/2000/svg">
  <defs
     id="defs7" />
  <sodipodi:namedview
     id="namedview5"
     pagecolor="#505050"
     bordercolor="#eeeeee"
     borderopacity="1"
     inkscape:pageshadow="0"
     inkscape:pageopacity="0"
     inkscape:pagecheckerboard="0"
     showgrid="false"
     inkscape:zoom="34.625"
     inkscape:cx="12"
     inkscape:cy="11.98556"
     inkscape:window-width="1920"
     inkscape:window-height="1003"
     inkscape:window-x="0"
     inkscape:window-y="0"
     inkscape:window-maximized="1"
     inkscape:current-layer="mdi-power" />
  <path
     d="M16.56,5.44L15.11,6.89C16.84,7.94 18,9.83 18,12A6,6 0 0,1 12,18A6,6 0 0,1 6,12C6,9.83 7.16,7.94 8.88,6.88L7.44,5.44C5.36,6.88 4,9.28 4,12A8,8 0 0,0 12,20A8,8 0 0,0 20,12C20,9.28 18.64,6.88 16.56,5.44M13,3H11V13H13"
     id="path2" />
</svg>
