<?xml version="1.0" encoding="UTF-8" standalone="no"?>
<!-- Created with Inkscape (http://www.inkscape.org/) -->

<svg
   version="1.1"
   id="svg333"
   width="1024"
   height="1024"
   viewBox="0 0 1024 1024"
   sodipodi:docname="Logo.svg"
   inkscape:version="1.2.2 (b0a8486541, 2022-12-01)"
   xmlns:inkscape="http://www.inkscape.org/namespaces/inkscape"
   xmlns:sodipodi="http://sodipodi.sourceforge.net/DTD/sodipodi-0.dtd"
   xmlns="http://www.w3.org/2000/svg"
   xmlns:svg="http://www.w3.org/2000/svg">
  <sodipodi:namedview
     id="namedview9"
     pagecolor="#ffffff"
     bordercolor="#000000"
     borderopacity="0.25"
     inkscape:showpageshadow="2"
     inkscape:pageopacity="0.0"
     inkscape:pagecheckerboard="0"
     inkscape:deskcolor="#d1d1d1"
     showgrid="false"
     inkscape:zoom="0.80859435"
     inkscape:cx="496.5407"
     inkscape:cy="226.31867"
     inkscape:window-width="1920"
     inkscape:window-height="1008"
     inkscape:window-x="0"
     inkscape:window-y="0"
     inkscape:window-maximized="1"
     inkscape:current-layer="svg333" />
  <defs
     id="defs337">
    <rect
       x="78.380258"
       y="237.55437"
       width="460.91598"
       height="247.36314"
       id="rect298" />
    <rect
       x="78.380257"
       y="237.55437"
       width="460.91599"
       height="247.36314"
       id="rect298-6" />
  </defs>
  <g
     id="g339">
    <path
       id="gearpoly1"
       data-id="1"
       class="gear gearpoly1"
       fill="#dddddd"
       stroke="#444444"
       stroke-width="1"
       stroke-miterlimit="10"
       d="m 635.20446,471.41486 -11.42321,1.6e-4 -0.24065,0.0127 -0.53908,0.0581 -0.83202,0.13822 -1.11647,0.25243 -1.38946,0.39994 -1.64808,0.57977 -1.88955,0.79071 -2.11111,1.03128 -2.31018,1.29986 -2.48426,1.59456 -2.63104,1.91337 -2.74833,2.25404 -1.40837,1.26095 -0.71096,0.66495 -0.17836,0.16987 -0.0223,0.0213 -0.0112,0.0107 -0.006,0.005 -0.004,0.005 1.12787,7.6646 0.006,0.004 0.007,0.004 0.0138,0.007 0.0275,0.014 0.21973,0.11129 0.87237,0.43196 1.71191,0.80179 3.28114,1.36679 3.0707,1.07434 2.83829,0.81134 2.5867,0.57926 2.3187,0.37943 2.03722,0.21287 1.74524,0.0804 1.44577,-0.0173 1.14186,-0.0799 0.83657,-0.10731 0.53297,-0.0996 0.2341,-0.0572 10.93902,-3.29051 c 7.67305,22.34605 18.66162,38.15025 36.49303,46.58444 23.09269,10.92276 57.9977,9.12097 76.61721,-1.73577 l 5.71174,9.89271 0.1313,0.20207 0.31988,0.4378 0.53571,0.65144 0.77684,0.84068 1.04109,1.00333 1.32614,1.1374 1.62955,1.24104 1.94867,1.31264 2.2808,1.35074 2.62306,1.35416 2.97255,1.32186 3.32622,1.2531 1.7962,0.58921 0.93134,0.28324 0.23629,0.0695 0.0296,0.009 0.0148,0.004 0.007,0.002 0.007,10e-4 6.07381,-4.80907 5e-4,-0.007 -4e-4,-0.008 -8.1e-4,-0.0154 -0.002,-0.0308 -0.0135,-0.24593 -0.0621,-0.97148 -0.16159,-1.88345 -0.45689,-3.52495 -0.60494,-3.19646 -0.71651,-2.86371 -0.79169,-2.52978 -0.83076,-2.19777 -0.83426,-1.87072 -0.80296,-1.55164 -0.73784,-1.24344 -0.64012,-0.94893 -0.51122,-0.67083 -0.35277,-0.41176 -0.16658,-0.17414 -8.31917,-7.82822 10.68914,-14.3778 9.89286,5.71147 0.21475,0.10935 0.49592,0.2192 0.78966,0.2963 1.0931,0.33964 1.40328,0.34837 1.71717,0.32194 2.03175,0.26 2.34392,0.16244 2.6506,0.0294 2.94872,-0.1388 3.23523,-0.34151 3.50714,-0.57789 1.85017,-0.38783 0.94818,-0.22038 0.2394,-0.0579 0.03,-0.007 0.015,-0.004 0.007,-0.002 0.006,-0.002 2.85554,-7.20167 -0.003,-0.006 -0.004,-0.007 -0.008,-0.0129 -0.0168,-0.0259 -0.13464,-0.20625 -0.53952,-0.81027 -1.08166,-1.55033 -2.15816,-2.82424 -2.12213,-2.46575 -2.05237,-2.12179 -1.95051,-1.79501 -1.81834,-1.48794 -1.65786,-1.20297 -1.4712,-0.94228 -1.26071,-0.70792 -1.02882,-0.50174 -0.77815,-0.32535 -0.51138,-0.18021 -0.23133,-0.0675 -11.11873,-2.61985 2.06832,-17.79572 11.4232,-1.6e-4 0.24065,-0.0127 0.53908,-0.0581 0.83202,-0.13823 1.11647,-0.25242 1.38946,-0.39994 1.64809,-0.57978 1.88954,-0.7907 2.11111,-1.03129 2.31019,-1.29985 2.48426,-1.59457 2.63104,-1.91336 2.74833,-2.25404 1.40837,-1.26095 0.71096,-0.66495 0.17836,-0.16987 0.0223,-0.0213 0.0112,-0.0107 0.006,-0.005 0.004,-0.005 -1.12787,-7.66461 -0.006,-0.004 -0.007,-0.004 -0.0138,-0.007 -0.0275,-0.014 -0.21973,-0.11129 -0.87237,-0.43195 -1.71191,-0.8018 -3.28114,-1.36678 -3.0707,-1.07435 -2.8383,-0.81133 -2.5867,-0.57927 -2.3187,-0.37942 -2.03722,-0.21287 -1.74524,-0.0804 -1.44577,0.0173 -1.14186,0.0799 -0.83657,0.10731 -0.53297,0.0996 -0.2341,0.0572 -10.93902,3.2905 -7.10697,-16.44596 9.8927,-5.71174 0.20208,-0.1313 0.43779,-0.31988 0.65144,-0.53572 0.84068,-0.77683 1.00333,-1.04109 1.1374,-1.32615 1.24104,-1.62954 1.31264,-1.94867 1.35074,-2.2808 1.35416,-2.62307 1.32186,-2.97254 1.2531,-3.32622 0.58922,-1.7962 0.28323,-0.93134 0.0695,-0.23629 0.009,-0.0296 0.004,-0.0148 0.002,-0.007 10e-4,-0.007 -4.80906,-6.07381 -0.007,-5e-4 -0.008,4e-4 -0.0154,8.1e-4 -0.0308,0.002 -0.24594,0.0135 -0.97147,0.0621 -1.88346,0.16158 -3.52494,0.4569 -3.19647,0.60494 -2.86371,0.71651 -2.52978,0.79169 -2.19776,0.83076 -1.87073,0.83426 -1.55164,0.80296 -1.24344,0.73784 -0.94892,0.64012 -0.67084,0.51122 -0.41175,0.35277 -0.17414,0.16657 -7.82822,8.31917 -14.3778,-10.68913 5.71146,-9.89287 0.10935,-0.21474 0.2192,-0.49592 0.29631,-0.78966 0.33963,-1.0931 0.34837,-1.40328 0.32194,-1.71717 0.26,-2.03175 0.16244,-2.34392 0.0294,-2.6506 -0.1388,-2.94872 -0.3415,-3.23523 -0.5779,-3.50714 -0.38782,-1.85017 -0.22039,-0.94818 -0.0579,-0.2394 -0.007,-0.03 -0.004,-0.015 -0.002,-0.007 -0.002,-0.006 -7.20167,-2.85554 -0.006,0.003 -0.007,0.004 -0.0129,0.008 -0.0259,0.0168 -0.20625,0.13464 -0.81027,0.53952 -1.55033,1.08166 -2.82424,2.15816 -2.46575,2.12213 -2.12179,2.05237 -1.79501,1.95051 -1.48794,1.81834 -1.20296,1.65786 -0.94229,1.4712 -0.70792,1.26071 -0.50174,1.02882 -0.32535,0.77815 -0.1802,0.51138 -0.0675,0.23133 -2.61986,11.11872 -17.79571,-2.06831 -1.6e-4,-11.4232 -0.0127,-0.24065 -0.0581,-0.53908 -0.13823,-0.83202 -0.25242,-1.11647 -0.39994,-1.38946 -0.57977,-1.64809 -0.79071,-1.88954 -1.03128,-2.11112 -1.29986,-2.31018 -1.59456,-2.48426 -1.91337,-2.63104 -2.25404,-2.74833 -1.26095,-1.40837 -0.66495,-0.71096 -0.16987,-0.17836 -0.0213,-0.0223 -0.0107,-0.0112 -0.005,-0.006 -0.005,-0.004 -7.6646,1.12787 -0.004,0.006 -0.003,0.007 -0.007,0.0138 -0.014,0.0275 -0.11129,0.21973 -0.43196,0.87237 -0.80179,1.71191 -1.36679,3.28114 -1.07434,3.0707 -0.81134,2.8383 -0.57927,2.58669 -0.37942,2.3187 -0.21287,2.03723 -0.0804,1.74524 0.0173,1.44577 0.0799,1.14185 0.10731,0.83658 0.0996,0.53297 0.0572,0.2341 3.29051,10.93864 -16.44596,7.10697 -5.71174,-9.89271 -0.1313,-0.20207 -0.31988,-0.43779 -0.53572,-0.65144 -0.77684,-0.84068 -1.04108,-1.00334 -1.32615,-1.13739 -1.62954,-1.24105 -1.94868,-1.31263 -2.28079,-1.35075 -2.62307,-1.35415 -2.97255,-1.32187 -3.32621,-1.2531 -1.79621,-0.58921 -0.93134,-0.28323 -0.23629,-0.0695 -0.0296,-0.009 -0.0148,-0.004 -0.007,-0.002 -0.007,-0.001 -6.07379,4.80906 -5e-4,0.007 4e-4,0.008 8.1e-4,0.0154 0.002,0.0308 0.0135,0.24594 0.0621,0.97146 0.16158,1.88346 0.4569,3.52494 0.60493,3.19647 0.71652,2.86371 0.79167,2.52978 0.83076,2.19776 0.83426,1.87073 0.80296,1.55164 0.73784,1.24343 0.64012,0.94893 0.51123,0.67084 0.35276,0.41175 0.16658,0.17414 8.31917,7.82822 -10.68914,14.3778 -9.89285,-5.71146 -0.21475,-0.10936 -0.49591,-0.21919 -0.78967,-0.29631 -1.0931,-0.33963 -1.40328,-0.34837 -1.71717,-0.32194 -2.03175,-0.26 -2.34392,-0.16244 -2.6506,-0.0294 -2.94872,0.1388 -3.23523,0.3415 -3.50714,0.57789 -1.85016,0.38783 -0.94818,0.22038 -0.2394,0.0579 -0.03,0.007 -0.015,0.004 -0.007,0.002 -0.006,0.002 -2.85554,7.20168 0.003,0.006 0.004,0.007 0.008,0.0129 0.0168,0.0259 0.13464,0.20625 0.53952,0.81027 1.08166,1.55032 2.15816,2.82425 2.12212,2.46575 2.05237,2.12179 1.95052,1.79501 1.81834,1.48794 1.65785,1.20296 1.4712,0.94228 1.26071,0.70793 1.02883,0.50174 0.77814,0.32535 0.51138,0.1802 0.23133,0.0675 11.11873,2.61985 z"
       style="fill:#e03432;fill-opacity:1;stroke:none" />
    <path
       id="gearpoly0"
       data-id="0"
       class="gear gearpoly0"
       fill="#dddddd"
       stroke="#444444"
       stroke-width="1"
       stroke-miterlimit="10"
       d="m 794.0162,563.27115 -13.69713,-1.19077 -0.31621,-0.004 -0.76633,0.0506 -1.20575,0.1842 -1.62433,0.39428 -2.01211,0.67791 -2.35957,1.03109 -2.65761,1.44856 -2.89783,1.92424 -3.07248,2.45088 -3.17471,3.02049 -0.40018,0.4194 -0.1001,0.10634 -0.0125,0.0134 -0.004,0.007 0.84551,6.73801 0.005,0.005 0.0154,0.0103 0.12326,0.0783 0.49141,0.30754 3.82256,2.14246 3.58278,1.61576 3.2834,1.14861 2.93312,0.74704 2.54116,0.41611 2.11723,0.15979 1.67139,-0.0193 1.21388,-0.11943 0.75506,-0.14033 0.30522,-0.0828 12.97828,-4.53804 8.12859,14.27861 -10.52734,8.84334 -0.227,0.22018 -0.50611,0.57763 -0.72235,0.98285 -0.86978,1.42737 -0.94343,1.90214 -0.93939,2.39755 -0.8549,2.90351 -0.68845,3.4097 -0.43954,3.90562 -0.10905,4.38066 0.0137,0.57955 0.005,0.14596 4.1e-4,0.0183 0.002,0.007 5.36235,4.16663 0.007,4.5e-4 0.0178,-0.003 0.14253,-0.0318 0.56493,-0.13002 4.21791,-1.18802 3.67592,-1.39088 3.13391,-1.50953 2.60226,-1.5458 2.09111,-1.50263 1.61008,-1.38413 1.16822,-1.19548 0.7739,-0.9428 0.43468,-0.63313 0.15727,-0.27437 5.96816,-12.38591 15.84428,4.3487 -1.19076,13.69713 -0.004,0.31621 0.0506,0.76633 0.1842,1.20575 0.39427,1.62433 0.67792,2.01211 1.03108,2.35957 1.44857,2.65761 1.92424,2.89783 2.45088,3.07248 3.02048,3.17471 0.41941,0.40018 0.10634,0.1001 0.0134,0.0125 0.007,0.004 6.73801,-0.84551 0.005,-0.005 0.0103,-0.0153 0.0783,-0.12326 0.30754,-0.49141 2.14246,-3.82256 1.61576,-3.58277 1.1486,-3.28341 0.74704,-2.93312 0.41612,-2.54116 0.15979,-2.11723 -0.0193,-1.67138 -0.11943,-1.21389 -0.14033,-0.75506 -0.0828,-0.30522 -4.53804,-12.97828 14.27861,-8.12859 8.84335,10.52734 0.22018,0.227 0.57763,0.50611 0.98284,0.72235 1.42738,0.86978 1.90214,0.94343 2.39754,0.93939 2.90351,0.8549 3.40971,0.68846 3.90561,0.43953 4.38067,0.10905 0.57954,-0.0137 0.14596,-0.005 0.0183,-4.1e-4 0.007,-0.002 4.16663,-5.36235 4.5e-4,-0.007 -0.003,-0.0178 -0.0318,-0.14253 -0.13001,-0.56493 -1.18802,-4.21791 -1.39088,-3.67592 -1.50953,-3.13391 -1.54581,-2.60226 -1.50262,-2.09111 -1.38414,-1.61008 -1.19548,-1.16822 -0.94279,-0.7739 -0.63313,-0.43468 -0.27437,-0.15726 -12.38591,-5.96817 4.34869,-15.84428 13.69714,1.19077 0.31621,0.004 0.76633,-0.0506 1.20575,-0.1842 1.62433,-0.39427 2.01211,-0.67792 2.35956,-1.03108 2.65762,-1.44857 2.89783,-1.92423 3.07248,-2.45089 3.1747,-3.02048 0.40018,-0.41941 0.1001,-0.10634 0.0125,-0.0134 0.004,-0.007 -0.84551,-6.73801 -0.005,-0.005 -0.0153,-0.0103 -0.12325,-0.0783 -0.49141,-0.30754 -3.82256,-2.14246 -3.58277,-1.61576 -3.28341,-1.1486 -2.93312,-0.74705 -2.54117,-0.41611 -2.11723,-0.15979 -1.67137,0.0193 -1.2139,0.11943 -0.75506,0.14033 -0.30521,0.0828 -12.97828,4.53804 -8.12859,-14.27861 10.52734,-8.84334 0.227,-0.22019 0.50611,-0.57763 0.72235,-0.98284 0.86978,-1.42738 0.94342,-1.90214 0.93939,-2.39754 0.85491,-2.90351 0.68846,-3.40971 0.43953,-3.90561 0.10905,-4.38067 -0.0137,-0.57954 -0.005,-0.14596 -4.1e-4,-0.0183 -0.002,-0.007 -5.36235,-4.16663 -0.007,-4.5e-4 -0.0178,0.003 -0.14253,0.0318 -0.56493,0.13001 -4.21791,1.18802 -3.67592,1.39088 -3.13391,1.50953 -2.60226,1.54581 -2.09112,1.50262 -1.61007,1.38414 -1.16823,1.19548 -0.77389,0.9428 -0.43468,0.63312 -0.15727,0.27437 -5.96816,12.38591 -15.84429,-4.34869 1.19078,-13.69714 0.004,-0.31621 -0.0506,-0.76633 -0.1842,-1.20575 -0.39428,-1.62433 -0.67791,-2.01211 -1.03109,-2.35956 -1.44856,-2.65762 -1.92423,-2.89783 -2.45089,-3.07248 -3.02049,-3.1747 -0.4194,-0.40018 -0.10634,-0.10009 -0.0134,-0.0125 -0.007,-0.004 -6.73801,0.8455 -0.005,0.005 -0.0103,0.0154 -0.0783,0.12325 -0.30754,0.49141 -2.14246,3.82256 -1.61576,3.58278 -1.14861,3.2834 -0.74704,2.93312 -0.41611,2.54117 -0.15979,2.11723 0.0193,1.67138 0.11943,1.21389 0.14033,0.75506 0.0828,0.30521 4.53804,12.97828 -14.27861,8.12859 -8.84333,-10.52734 -0.22019,-0.227 -0.57763,-0.50611 -0.98285,-0.72235 -1.42737,-0.86978 -1.90214,-0.94342 -2.39755,-0.93938 -2.90351,-0.85492 -3.4097,-0.68845 -3.90562,-0.43954 -4.38066,-0.10905 -0.57955,0.0137 -0.14596,0.005 -0.0183,4.1e-4 -0.007,0.002 -4.16663,5.36235 -4.5e-4,0.007 0.003,0.0178 0.0318,0.14253 0.13002,0.56494 1.18802,4.2179 1.39088,3.67592 1.50953,3.13391 1.5458,2.60227 1.50263,2.09112 1.38413,1.61006 1.19548,1.16823 0.94281,0.77389 0.63312,0.43468 0.27437,0.15728 12.38591,5.96815 z"
       style="fill:#3f3f3f;fill-opacity:1;stroke:none" />
  </g>
  <text
     xml:space="preserve"
     id="text296"
     style="font-size:80px;font-family:'Modern No. 20';-inkscape-font-specification:'Modern No. 20, Normal';text-align:center;white-space:pre;shape-inside:url(#rect298);vector-effect:non-scaling-stroke;fill:#e03432;stroke-linejoin:bevel;-inkscape-stroke:hairline"
     transform="matrix(2.4367923,0,0,2.2190651,-443.07986,-24.101007)"><tspan
       x="233.75891"
       y="310.3447"
       id="tspan1150"><tspan
         style="font-weight:bold;font-family:'Noto Sans Sora Sompeng';-inkscape-font-specification:'Noto Sans Sora Sompeng, Bold'"
         id="tspan1148">VEX</tspan></tspan></text>
  <text
     xml:space="preserve"
     id="text296-1"
     style="font-size:80px;font-family:'Modern No. 20';-inkscape-font-specification:'Modern No. 20, Normal';text-align:center;white-space:pre;shape-inside:url(#rect298-6);display:inline;vector-effect:non-scaling-stroke;fill:#3f3f3f;fill-opacity:1;stroke-linejoin:bevel;-inkscape-stroke:hairline"
     transform="matrix(2.4367923,0,0,2.2190651,-120.95164,-25.876259)"><tspan
       x="248.71886"
       y="310.3447"
       id="tspan1154"><tspan
         style="font-weight:bold;font-family:'Noto Sans Sora Sompeng';-inkscape-font-specification:'Noto Sans Sora Sompeng, Bold'"
         id="tspan1152">Lib</tspan></tspan></text>
</svg>
