<?xml version="1.0" encoding="utf-8" standalone="no"?>
<!DOCTYPE svg PUBLIC "-//W3C//DTD SVG 1.1//EN"
  "http://www.w3.org/Graphics/SVG/1.1/DTD/svg11.dtd">
<svg xmlns:xlink="http://www.w3.org/1999/xlink" width="600.4725pt" height="745.149931pt" viewBox="0 0 600.4725 745.149931" xmlns="http://www.w3.org/2000/svg" version="1.1">
 <metadata>
  <rdf:RDF xmlns:dc="http://purl.org/dc/elements/1.1/" xmlns:cc="http://creativecommons.org/ns#" xmlns:rdf="http://www.w3.org/1999/02/22-rdf-syntax-ns#">
   <cc:Work>
    <dc:type rdf:resource="http://purl.org/dc/dcmitype/StillImage"/>
    <dc:date>2025-01-23T17:17:51.260048</dc:date>
    <dc:format>image/svg+xml</dc:format>
    <dc:creator>
     <cc:Agent>
      <dc:title>Matplotlib v3.10.0, https://matplotlib.org/</dc:title>
     </cc:Agent>
    </dc:creator>
   </cc:Work>
  </rdf:RDF>
 </metadata>
 <defs>
  <style type="text/css">*{stroke-linejoin: round; stroke-linecap: butt}</style>
 </defs>
 <g id="figure_1">
  <g id="patch_1">
   <path d="M 0 745.149931 
L 600.4725 745.149931 
L 600.4725 -0 
L 0 -0 
z
" style="fill: #ffffff"/>
  </g>
  <g id="axes_1">
   <g id="patch_2">
    <path d="M 50.14375 204.96046 
L 593.2725 204.96046 
L 593.2725 22.318125 
L 50.14375 22.318125 
z
" style="fill: #ffffff"/>
   </g>
   <g id="matplotlib.axis_1">
    <g id="xtick_1">
     <g id="line2d_1">
      <path d="M 74.83142 204.96046 
L 74.83142 22.318125 
" clip-path="url(#pe296b2dd07)" style="fill: none; stroke: #b0b0b0; stroke-width: 0.8; stroke-linecap: square"/>
     </g>
     <g id="line2d_2">
      <defs>
       <path id="m2319e3ef21" d="M 0 0 
L 0 3.5 
" style="stroke: #000000; stroke-width: 0.8"/>
      </defs>
      <g>
       <use xlink:href="#m2319e3ef21" x="74.83142" y="204.96046" style="stroke: #000000; stroke-width: 0.8"/>
      </g>
     </g>
     <g id="text_1">
      <!-- 0 -->
      <g transform="translate(71.65017 219.558898) scale(0.1 -0.1)">
       <defs>
        <path id="DejaVuSans-30" d="M 2034 4250 
Q 1547 4250 1301 3770 
Q 1056 3291 1056 2328 
Q 1056 1369 1301 889 
Q 1547 409 2034 409 
Q 2525 409 2770 889 
Q 3016 1369 3016 2328 
Q 3016 3291 2770 3770 
Q 2525 4250 2034 4250 
z
M 2034 4750 
Q 2819 4750 3233 4129 
Q 3647 3509 3647 2328 
Q 3647 1150 3233 529 
Q 2819 -91 2034 -91 
Q 1250 -91 836 529 
Q 422 1150 422 2328 
Q 422 3509 836 4129 
Q 1250 4750 2034 4750 
z
" transform="scale(0.015625)"/>
       </defs>
       <use xlink:href="#DejaVuSans-30"/>
      </g>
     </g>
    </g>
    <g id="xtick_2">
     <g id="line2d_3">
      <path d="M 157.123655 204.96046 
L 157.123655 22.318125 
" clip-path="url(#pe296b2dd07)" style="fill: none; stroke: #b0b0b0; stroke-width: 0.8; stroke-linecap: square"/>
     </g>
     <g id="line2d_4">
      <g>
       <use xlink:href="#m2319e3ef21" x="157.123655" y="204.96046" style="stroke: #000000; stroke-width: 0.8"/>
      </g>
     </g>
     <g id="text_2">
      <!-- 2 -->
      <g transform="translate(153.942405 219.558898) scale(0.1 -0.1)">
       <defs>
        <path id="DejaVuSans-32" d="M 1228 531 
L 3431 531 
L 3431 0 
L 469 0 
L 469 531 
Q 828 903 1448 1529 
Q 2069 2156 2228 2338 
Q 2531 2678 2651 2914 
Q 2772 3150 2772 3378 
Q 2772 3750 2511 3984 
Q 2250 4219 1831 4219 
Q 1534 4219 1204 4116 
Q 875 4013 500 3803 
L 500 4441 
Q 881 4594 1212 4672 
Q 1544 4750 1819 4750 
Q 2544 4750 2975 4387 
Q 3406 4025 3406 3419 
Q 3406 3131 3298 2873 
Q 3191 2616 2906 2266 
Q 2828 2175 2409 1742 
Q 1991 1309 1228 531 
z
" transform="scale(0.015625)"/>
       </defs>
       <use xlink:href="#DejaVuSans-32"/>
      </g>
     </g>
    </g>
    <g id="xtick_3">
     <g id="line2d_5">
      <path d="M 239.41589 204.96046 
L 239.41589 22.318125 
" clip-path="url(#pe296b2dd07)" style="fill: none; stroke: #b0b0b0; stroke-width: 0.8; stroke-linecap: square"/>
     </g>
     <g id="line2d_6">
      <g>
       <use xlink:href="#m2319e3ef21" x="239.41589" y="204.96046" style="stroke: #000000; stroke-width: 0.8"/>
      </g>
     </g>
     <g id="text_3">
      <!-- 4 -->
      <g transform="translate(236.23464 219.558898) scale(0.1 -0.1)">
       <defs>
        <path id="DejaVuSans-34" d="M 2419 4116 
L 825 1625 
L 2419 1625 
L 2419 4116 
z
M 2253 4666 
L 3047 4666 
L 3047 1625 
L 3713 1625 
L 3713 1100 
L 3047 1100 
L 3047 0 
L 2419 0 
L 2419 1100 
L 313 1100 
L 313 1709 
L 2253 4666 
z
" transform="scale(0.015625)"/>
       </defs>
       <use xlink:href="#DejaVuSans-34"/>
      </g>
     </g>
    </g>
    <g id="xtick_4">
     <g id="line2d_7">
      <path d="M 321.708125 204.96046 
L 321.708125 22.318125 
" clip-path="url(#pe296b2dd07)" style="fill: none; stroke: #b0b0b0; stroke-width: 0.8; stroke-linecap: square"/>
     </g>
     <g id="line2d_8">
      <g>
       <use xlink:href="#m2319e3ef21" x="321.708125" y="204.96046" style="stroke: #000000; stroke-width: 0.8"/>
      </g>
     </g>
     <g id="text_4">
      <!-- 6 -->
      <g transform="translate(318.526875 219.558898) scale(0.1 -0.1)">
       <defs>
        <path id="DejaVuSans-36" d="M 2113 2584 
Q 1688 2584 1439 2293 
Q 1191 2003 1191 1497 
Q 1191 994 1439 701 
Q 1688 409 2113 409 
Q 2538 409 2786 701 
Q 3034 994 3034 1497 
Q 3034 2003 2786 2293 
Q 2538 2584 2113 2584 
z
M 3366 4563 
L 3366 3988 
Q 3128 4100 2886 4159 
Q 2644 4219 2406 4219 
Q 1781 4219 1451 3797 
Q 1122 3375 1075 2522 
Q 1259 2794 1537 2939 
Q 1816 3084 2150 3084 
Q 2853 3084 3261 2657 
Q 3669 2231 3669 1497 
Q 3669 778 3244 343 
Q 2819 -91 2113 -91 
Q 1303 -91 875 529 
Q 447 1150 447 2328 
Q 447 3434 972 4092 
Q 1497 4750 2381 4750 
Q 2619 4750 2861 4703 
Q 3103 4656 3366 4563 
z
" transform="scale(0.015625)"/>
       </defs>
       <use xlink:href="#DejaVuSans-36"/>
      </g>
     </g>
    </g>
    <g id="xtick_5">
     <g id="line2d_9">
      <path d="M 404.00036 204.96046 
L 404.00036 22.318125 
" clip-path="url(#pe296b2dd07)" style="fill: none; stroke: #b0b0b0; stroke-width: 0.8; stroke-linecap: square"/>
     </g>
     <g id="line2d_10">
      <g>
       <use xlink:href="#m2319e3ef21" x="404.00036" y="204.96046" style="stroke: #000000; stroke-width: 0.8"/>
      </g>
     </g>
     <g id="text_5">
      <!-- 8 -->
      <g transform="translate(400.81911 219.558898) scale(0.1 -0.1)">
       <defs>
        <path id="DejaVuSans-38" d="M 2034 2216 
Q 1584 2216 1326 1975 
Q 1069 1734 1069 1313 
Q 1069 891 1326 650 
Q 1584 409 2034 409 
Q 2484 409 2743 651 
Q 3003 894 3003 1313 
Q 3003 1734 2745 1975 
Q 2488 2216 2034 2216 
z
M 1403 2484 
Q 997 2584 770 2862 
Q 544 3141 544 3541 
Q 544 4100 942 4425 
Q 1341 4750 2034 4750 
Q 2731 4750 3128 4425 
Q 3525 4100 3525 3541 
Q 3525 3141 3298 2862 
Q 3072 2584 2669 2484 
Q 3125 2378 3379 2068 
Q 3634 1759 3634 1313 
Q 3634 634 3220 271 
Q 2806 -91 2034 -91 
Q 1263 -91 848 271 
Q 434 634 434 1313 
Q 434 1759 690 2068 
Q 947 2378 1403 2484 
z
M 1172 3481 
Q 1172 3119 1398 2916 
Q 1625 2713 2034 2713 
Q 2441 2713 2670 2916 
Q 2900 3119 2900 3481 
Q 2900 3844 2670 4047 
Q 2441 4250 2034 4250 
Q 1625 4250 1398 4047 
Q 1172 3844 1172 3481 
z
" transform="scale(0.015625)"/>
       </defs>
       <use xlink:href="#DejaVuSans-38"/>
      </g>
     </g>
    </g>
    <g id="xtick_6">
     <g id="line2d_11">
      <path d="M 486.292595 204.96046 
L 486.292595 22.318125 
" clip-path="url(#pe296b2dd07)" style="fill: none; stroke: #b0b0b0; stroke-width: 0.8; stroke-linecap: square"/>
     </g>
     <g id="line2d_12">
      <g>
       <use xlink:href="#m2319e3ef21" x="486.292595" y="204.96046" style="stroke: #000000; stroke-width: 0.8"/>
      </g>
     </g>
     <g id="text_6">
      <!-- 10 -->
      <g transform="translate(479.930095 219.558898) scale(0.1 -0.1)">
       <defs>
        <path id="DejaVuSans-31" d="M 794 531 
L 1825 531 
L 1825 4091 
L 703 3866 
L 703 4441 
L 1819 4666 
L 2450 4666 
L 2450 531 
L 3481 531 
L 3481 0 
L 794 0 
L 794 531 
z
" transform="scale(0.015625)"/>
       </defs>
       <use xlink:href="#DejaVuSans-31"/>
       <use xlink:href="#DejaVuSans-30" transform="translate(63.623047 0)"/>
      </g>
     </g>
    </g>
    <g id="xtick_7">
     <g id="line2d_13">
      <path d="M 568.58483 204.96046 
L 568.58483 22.318125 
" clip-path="url(#pe296b2dd07)" style="fill: none; stroke: #b0b0b0; stroke-width: 0.8; stroke-linecap: square"/>
     </g>
     <g id="line2d_14">
      <g>
       <use xlink:href="#m2319e3ef21" x="568.58483" y="204.96046" style="stroke: #000000; stroke-width: 0.8"/>
      </g>
     </g>
     <g id="text_7">
      <!-- 12 -->
      <g transform="translate(562.22233 219.558898) scale(0.1 -0.1)">
       <use xlink:href="#DejaVuSans-31"/>
       <use xlink:href="#DejaVuSans-32" transform="translate(63.623047 0)"/>
      </g>
     </g>
    </g>
    <g id="text_8">
     <!-- Voltage -->
     <g transform="translate(302.951875 233.237023) scale(0.1 -0.1)">
      <defs>
       <path id="DejaVuSans-56" d="M 1831 0 
L 50 4666 
L 709 4666 
L 2188 738 
L 3669 4666 
L 4325 4666 
L 2547 0 
L 1831 0 
z
" transform="scale(0.015625)"/>
       <path id="DejaVuSans-6f" d="M 1959 3097 
Q 1497 3097 1228 2736 
Q 959 2375 959 1747 
Q 959 1119 1226 758 
Q 1494 397 1959 397 
Q 2419 397 2687 759 
Q 2956 1122 2956 1747 
Q 2956 2369 2687 2733 
Q 2419 3097 1959 3097 
z
M 1959 3584 
Q 2709 3584 3137 3096 
Q 3566 2609 3566 1747 
Q 3566 888 3137 398 
Q 2709 -91 1959 -91 
Q 1206 -91 779 398 
Q 353 888 353 1747 
Q 353 2609 779 3096 
Q 1206 3584 1959 3584 
z
" transform="scale(0.015625)"/>
       <path id="DejaVuSans-6c" d="M 603 4863 
L 1178 4863 
L 1178 0 
L 603 0 
L 603 4863 
z
" transform="scale(0.015625)"/>
       <path id="DejaVuSans-74" d="M 1172 4494 
L 1172 3500 
L 2356 3500 
L 2356 3053 
L 1172 3053 
L 1172 1153 
Q 1172 725 1289 603 
Q 1406 481 1766 481 
L 2356 481 
L 2356 0 
L 1766 0 
Q 1100 0 847 248 
Q 594 497 594 1153 
L 594 3053 
L 172 3053 
L 172 3500 
L 594 3500 
L 594 4494 
L 1172 4494 
z
" transform="scale(0.015625)"/>
       <path id="DejaVuSans-61" d="M 2194 1759 
Q 1497 1759 1228 1600 
Q 959 1441 959 1056 
Q 959 750 1161 570 
Q 1363 391 1709 391 
Q 2188 391 2477 730 
Q 2766 1069 2766 1631 
L 2766 1759 
L 2194 1759 
z
M 3341 1997 
L 3341 0 
L 2766 0 
L 2766 531 
Q 2569 213 2275 61 
Q 1981 -91 1556 -91 
Q 1019 -91 701 211 
Q 384 513 384 1019 
Q 384 1609 779 1909 
Q 1175 2209 1959 2209 
L 2766 2209 
L 2766 2266 
Q 2766 2663 2505 2880 
Q 2244 3097 1772 3097 
Q 1472 3097 1187 3025 
Q 903 2953 641 2809 
L 641 3341 
Q 956 3463 1253 3523 
Q 1550 3584 1831 3584 
Q 2591 3584 2966 3190 
Q 3341 2797 3341 1997 
z
" transform="scale(0.015625)"/>
       <path id="DejaVuSans-67" d="M 2906 1791 
Q 2906 2416 2648 2759 
Q 2391 3103 1925 3103 
Q 1463 3103 1205 2759 
Q 947 2416 947 1791 
Q 947 1169 1205 825 
Q 1463 481 1925 481 
Q 2391 481 2648 825 
Q 2906 1169 2906 1791 
z
M 3481 434 
Q 3481 -459 3084 -895 
Q 2688 -1331 1869 -1331 
Q 1566 -1331 1297 -1286 
Q 1028 -1241 775 -1147 
L 775 -588 
Q 1028 -725 1275 -790 
Q 1522 -856 1778 -856 
Q 2344 -856 2625 -561 
Q 2906 -266 2906 331 
L 2906 616 
Q 2728 306 2450 153 
Q 2172 0 1784 0 
Q 1141 0 747 490 
Q 353 981 353 1791 
Q 353 2603 747 3093 
Q 1141 3584 1784 3584 
Q 2172 3584 2450 3431 
Q 2728 3278 2906 2969 
L 2906 3500 
L 3481 3500 
L 3481 434 
z
" transform="scale(0.015625)"/>
       <path id="DejaVuSans-65" d="M 3597 1894 
L 3597 1613 
L 953 1613 
Q 991 1019 1311 708 
Q 1631 397 2203 397 
Q 2534 397 2845 478 
Q 3156 559 3463 722 
L 3463 178 
Q 3153 47 2828 -22 
Q 2503 -91 2169 -91 
Q 1331 -91 842 396 
Q 353 884 353 1716 
Q 353 2575 817 3079 
Q 1281 3584 2069 3584 
Q 2775 3584 3186 3129 
Q 3597 2675 3597 1894 
z
M 3022 2063 
Q 3016 2534 2758 2815 
Q 2500 3097 2075 3097 
Q 1594 3097 1305 2825 
Q 1016 2553 972 2059 
L 3022 2063 
z
" transform="scale(0.015625)"/>
      </defs>
      <use xlink:href="#DejaVuSans-56"/>
      <use xlink:href="#DejaVuSans-6f" transform="translate(60.658203 0)"/>
      <use xlink:href="#DejaVuSans-6c" transform="translate(121.839844 0)"/>
      <use xlink:href="#DejaVuSans-74" transform="translate(149.623047 0)"/>
      <use xlink:href="#DejaVuSans-61" transform="translate(188.832031 0)"/>
      <use xlink:href="#DejaVuSans-67" transform="translate(250.111328 0)"/>
      <use xlink:href="#DejaVuSans-65" transform="translate(313.587891 0)"/>
     </g>
    </g>
   </g>
   <g id="matplotlib.axis_2">
    <g id="ytick_1">
     <g id="line2d_15">
      <path d="M 50.14375 196.658536 
L 593.2725 196.658536 
" clip-path="url(#pe296b2dd07)" style="fill: none; stroke: #b0b0b0; stroke-width: 0.8; stroke-linecap: square"/>
     </g>
     <g id="line2d_16">
      <defs>
       <path id="md478b695c7" d="M 0 0 
L -3.5 0 
" style="stroke: #000000; stroke-width: 0.8"/>
      </defs>
      <g>
       <use xlink:href="#md478b695c7" x="50.14375" y="196.658536" style="stroke: #000000; stroke-width: 0.8"/>
      </g>
     </g>
     <g id="text_9">
      <!-- 0.00 -->
      <g transform="translate(20.878125 200.457754) scale(0.1 -0.1)">
       <defs>
        <path id="DejaVuSans-2e" d="M 684 794 
L 1344 794 
L 1344 0 
L 684 0 
L 684 794 
z
" transform="scale(0.015625)"/>
       </defs>
       <use xlink:href="#DejaVuSans-30"/>
       <use xlink:href="#DejaVuSans-2e" transform="translate(63.623047 0)"/>
       <use xlink:href="#DejaVuSans-30" transform="translate(95.410156 0)"/>
       <use xlink:href="#DejaVuSans-30" transform="translate(159.033203 0)"/>
      </g>
     </g>
    </g>
    <g id="ytick_2">
     <g id="line2d_17">
      <path d="M 50.14375 161.381667 
L 593.2725 161.381667 
" clip-path="url(#pe296b2dd07)" style="fill: none; stroke: #b0b0b0; stroke-width: 0.8; stroke-linecap: square"/>
     </g>
     <g id="line2d_18">
      <g>
       <use xlink:href="#md478b695c7" x="50.14375" y="161.381667" style="stroke: #000000; stroke-width: 0.8"/>
      </g>
     </g>
     <g id="text_10">
      <!-- 0.01 -->
      <g transform="translate(20.878125 165.180885) scale(0.1 -0.1)">
       <use xlink:href="#DejaVuSans-30"/>
       <use xlink:href="#DejaVuSans-2e" transform="translate(63.623047 0)"/>
       <use xlink:href="#DejaVuSans-30" transform="translate(95.410156 0)"/>
       <use xlink:href="#DejaVuSans-31" transform="translate(159.033203 0)"/>
      </g>
     </g>
    </g>
    <g id="ytick_3">
     <g id="line2d_19">
      <path d="M 50.14375 126.104798 
L 593.2725 126.104798 
" clip-path="url(#pe296b2dd07)" style="fill: none; stroke: #b0b0b0; stroke-width: 0.8; stroke-linecap: square"/>
     </g>
     <g id="line2d_20">
      <g>
       <use xlink:href="#md478b695c7" x="50.14375" y="126.104798" style="stroke: #000000; stroke-width: 0.8"/>
      </g>
     </g>
     <g id="text_11">
      <!-- 0.02 -->
      <g transform="translate(20.878125 129.904016) scale(0.1 -0.1)">
       <use xlink:href="#DejaVuSans-30"/>
       <use xlink:href="#DejaVuSans-2e" transform="translate(63.623047 0)"/>
       <use xlink:href="#DejaVuSans-30" transform="translate(95.410156 0)"/>
       <use xlink:href="#DejaVuSans-32" transform="translate(159.033203 0)"/>
      </g>
     </g>
    </g>
    <g id="ytick_4">
     <g id="line2d_21">
      <path d="M 50.14375 90.827928 
L 593.2725 90.827928 
" clip-path="url(#pe296b2dd07)" style="fill: none; stroke: #b0b0b0; stroke-width: 0.8; stroke-linecap: square"/>
     </g>
     <g id="line2d_22">
      <g>
       <use xlink:href="#md478b695c7" x="50.14375" y="90.827928" style="stroke: #000000; stroke-width: 0.8"/>
      </g>
     </g>
     <g id="text_12">
      <!-- 0.03 -->
      <g transform="translate(20.878125 94.627147) scale(0.1 -0.1)">
       <defs>
        <path id="DejaVuSans-33" d="M 2597 2516 
Q 3050 2419 3304 2112 
Q 3559 1806 3559 1356 
Q 3559 666 3084 287 
Q 2609 -91 1734 -91 
Q 1441 -91 1130 -33 
Q 819 25 488 141 
L 488 750 
Q 750 597 1062 519 
Q 1375 441 1716 441 
Q 2309 441 2620 675 
Q 2931 909 2931 1356 
Q 2931 1769 2642 2001 
Q 2353 2234 1838 2234 
L 1294 2234 
L 1294 2753 
L 1863 2753 
Q 2328 2753 2575 2939 
Q 2822 3125 2822 3475 
Q 2822 3834 2567 4026 
Q 2313 4219 1838 4219 
Q 1578 4219 1281 4162 
Q 984 4106 628 3988 
L 628 4550 
Q 988 4650 1302 4700 
Q 1616 4750 1894 4750 
Q 2613 4750 3031 4423 
Q 3450 4097 3450 3541 
Q 3450 3153 3228 2886 
Q 3006 2619 2597 2516 
z
" transform="scale(0.015625)"/>
       </defs>
       <use xlink:href="#DejaVuSans-30"/>
       <use xlink:href="#DejaVuSans-2e" transform="translate(63.623047 0)"/>
       <use xlink:href="#DejaVuSans-30" transform="translate(95.410156 0)"/>
       <use xlink:href="#DejaVuSans-33" transform="translate(159.033203 0)"/>
      </g>
     </g>
    </g>
    <g id="ytick_5">
     <g id="line2d_23">
      <path d="M 50.14375 55.551059 
L 593.2725 55.551059 
" clip-path="url(#pe296b2dd07)" style="fill: none; stroke: #b0b0b0; stroke-width: 0.8; stroke-linecap: square"/>
     </g>
     <g id="line2d_24">
      <g>
       <use xlink:href="#md478b695c7" x="50.14375" y="55.551059" style="stroke: #000000; stroke-width: 0.8"/>
      </g>
     </g>
     <g id="text_13">
      <!-- 0.04 -->
      <g transform="translate(20.878125 59.350278) scale(0.1 -0.1)">
       <use xlink:href="#DejaVuSans-30"/>
       <use xlink:href="#DejaVuSans-2e" transform="translate(63.623047 0)"/>
       <use xlink:href="#DejaVuSans-30" transform="translate(95.410156 0)"/>
       <use xlink:href="#DejaVuSans-34" transform="translate(159.033203 0)"/>
      </g>
     </g>
    </g>
    <g id="text_14">
     <!-- Torque -->
     <g transform="translate(14.798438 130.290074) rotate(-90) scale(0.1 -0.1)">
      <defs>
       <path id="DejaVuSans-54" d="M -19 4666 
L 3928 4666 
L 3928 4134 
L 2272 4134 
L 2272 0 
L 1638 0 
L 1638 4134 
L -19 4134 
L -19 4666 
z
" transform="scale(0.015625)"/>
       <path id="DejaVuSans-72" d="M 2631 2963 
Q 2534 3019 2420 3045 
Q 2306 3072 2169 3072 
Q 1681 3072 1420 2755 
Q 1159 2438 1159 1844 
L 1159 0 
L 581 0 
L 581 3500 
L 1159 3500 
L 1159 2956 
Q 1341 3275 1631 3429 
Q 1922 3584 2338 3584 
Q 2397 3584 2469 3576 
Q 2541 3569 2628 3553 
L 2631 2963 
z
" transform="scale(0.015625)"/>
       <path id="DejaVuSans-71" d="M 947 1747 
Q 947 1113 1208 752 
Q 1469 391 1925 391 
Q 2381 391 2643 752 
Q 2906 1113 2906 1747 
Q 2906 2381 2643 2742 
Q 2381 3103 1925 3103 
Q 1469 3103 1208 2742 
Q 947 2381 947 1747 
z
M 2906 525 
Q 2725 213 2448 61 
Q 2172 -91 1784 -91 
Q 1150 -91 751 415 
Q 353 922 353 1747 
Q 353 2572 751 3078 
Q 1150 3584 1784 3584 
Q 2172 3584 2448 3432 
Q 2725 3281 2906 2969 
L 2906 3500 
L 3481 3500 
L 3481 -1331 
L 2906 -1331 
L 2906 525 
z
" transform="scale(0.015625)"/>
       <path id="DejaVuSans-75" d="M 544 1381 
L 544 3500 
L 1119 3500 
L 1119 1403 
Q 1119 906 1312 657 
Q 1506 409 1894 409 
Q 2359 409 2629 706 
Q 2900 1003 2900 1516 
L 2900 3500 
L 3475 3500 
L 3475 0 
L 2900 0 
L 2900 538 
Q 2691 219 2414 64 
Q 2138 -91 1772 -91 
Q 1169 -91 856 284 
Q 544 659 544 1381 
z
M 1991 3584 
L 1991 3584 
z
" transform="scale(0.015625)"/>
      </defs>
      <use xlink:href="#DejaVuSans-54"/>
      <use xlink:href="#DejaVuSans-6f" transform="translate(44.083984 0)"/>
      <use xlink:href="#DejaVuSans-72" transform="translate(105.265625 0)"/>
      <use xlink:href="#DejaVuSans-71" transform="translate(144.628906 0)"/>
      <use xlink:href="#DejaVuSans-75" transform="translate(208.105469 0)"/>
      <use xlink:href="#DejaVuSans-65" transform="translate(271.484375 0)"/>
     </g>
    </g>
   </g>
   <g id="line2d_25">
    <path d="M 74.83142 196.658536 
L 78.946032 196.658536 
L 83.060644 196.658536 
L 87.175256 196.658536 
L 91.289867 196.658536 
L 95.404479 167.724959 
L 99.519091 137.438797 
L 103.633703 138.143911 
L 107.748314 143.143666 
L 111.862926 123.9588 
L 115.977538 100.364642 
L 120.09215 104.01227 
L 124.206761 81.189547 
L 128.321373 80.565958 
L 132.435985 52.569776 
L 136.550597 73.380271 
L 140.665208 69.939048 
L 144.77982 57.521802 
L 148.894432 81.962146 
L 153.009044 78.338435 
L 157.123655 74.590515 
L 161.238267 72.626334 
L 165.352879 74.090606 
L 169.467491 72.547667 
L 173.582102 70.777932 
L 177.696714 73.404471 
L 181.811326 68.040023 
L 185.925938 67.088889 
L 190.040549 67.372409 
L 194.155161 67.10247 
L 198.269773 67.72232 
L 202.384384 66.372063 
L 206.498996 65.61047 
L 210.613608 65.257666 
L 214.72822 65.105094 
L 218.842831 66.246689 
L 222.957443 66.161883 
L 227.072055 65.371399 
L 231.186667 63.936583 
L 235.301278 64.66752 
L 239.41589 66.350156 
L 243.530502 66.040037 
L 247.645114 68.06948 
L 251.759725 66.248135 
L 255.874337 62.624319 
L 259.988949 62.857957 
L 264.103561 70.731507 
L 268.218172 65.857232 
L 272.332784 66.726948 
L 276.447396 67.358298 
L 280.562008 68.389441 
L 284.676619 66.512394 
L 288.791231 66.572506 
L 292.905843 67.477357 
L 297.020455 68.119008 
L 301.135066 66.429282 
L 305.249678 67.14258 
L 309.36429 67.866885 
L 313.478902 68.049231 
L 317.593513 66.675655 
L 321.708125 66.56665 
L 325.822737 66.264115 
L 329.937348 68.101441 
L 334.05196 68.410148 
L 338.166572 70.059554 
L 342.281184 68.871111 
L 346.395795 70.170253 
L 350.510407 68.278883 
L 354.625019 69.382061 
L 358.739631 70.091938 
L 362.854242 70.934208 
L 366.968854 72.354385 
L 371.083466 71.988246 
L 375.198078 72.787267 
L 379.312689 73.567098 
L 383.427301 72.870062 
L 387.541913 72.425503 
L 391.656525 70.637177 
L 395.771136 73.609077 
L 399.885748 74.187582 
L 404.00036 72.869427 
L 408.114972 73.071881 
L 412.229583 74.133538 
L 416.344195 73.617967 
L 420.458848 75.100689 
L 424.573419 75.041953 
L 428.68803 75.556113 
L 432.802642 74.279655 
L 436.917254 73.388244 
L 441.031907 76.250115 
L 445.146477 75.603102 
L 449.261089 74.232525 
L 453.375701 74.452935 
L 457.490313 75.541932 
L 461.604965 76.925632 
L 465.719536 76.744309 
L 469.834148 79.124757 
L 473.948759 75.146937 
L 478.063371 78.832241 
L 482.178024 73.889951 
L 486.292595 70.505453 
L 490.407206 68.781931 
L 494.521818 69.038465 
L 498.63643 67.438482 
L 502.751042 65.840652 
L 506.865653 64.127854 
L 510.980265 61.193207 
L 515.094877 51.847447 
L 519.209489 49.085515 
L 523.3241 48.4415 
L 527.438712 46.015087 
L 531.553324 48.572236 
L 535.667936 59.874451 
L 539.782547 38.795534 
L 543.897159 41.039002 
L 548.011771 51.86512 
L 552.126383 49.662962 
L 556.240994 48.637111 
L 560.355606 40.170944 
L 564.470218 30.620049 
L 568.58483 33.219778 
" clip-path="url(#pe296b2dd07)" style="fill: none; stroke: #0000ff; stroke-width: 1.5; stroke-linecap: square"/>
   </g>
   <g id="line2d_26">
    <path d="M 74.83142 196.658536 
L 78.946032 196.658536 
L 83.060644 196.658536 
L 87.175256 196.658536 
L 91.289867 196.658536 
L 95.404479 196.186983 
L 99.519091 186.553875 
L 103.633703 190.995646 
L 107.748314 160.285544 
L 111.862926 150.347591 
L 115.977538 155.28854 
L 120.09215 154.319414 
L 124.206761 158.108185 
L 128.321373 157.425965 
L 132.435985 157.963585 
L 136.550597 155.380295 
L 140.665208 160.719273 
L 144.77982 161.729027 
L 148.894432 159.999166 
L 153.009044 158.142439 
L 157.123655 156.288604 
L 161.238267 157.081275 
L 165.352879 151.321621 
L 169.467491 150.244618 
L 173.582102 147.574124 
L 177.696714 146.581891 
L 181.811326 145.784246 
L 185.925938 144.339729 
L 190.040549 146.742895 
L 194.155161 146.292339 
L 198.269773 146.008395 
L 202.384384 145.871274 
L 206.498996 146.628562 
L 210.613608 146.417607 
L 214.72822 146.406283 
L 218.842831 146.799549 
L 222.957443 148.667213 
L 227.072055 148.521625 
L 231.186667 148.392829 
L 235.301278 148.667954 
L 239.41589 149.007388 
L 243.530502 151.015276 
L 247.645114 149.667453 
L 251.759725 150.889162 
L 255.874337 150.511805 
L 259.988949 150.279154 
L 264.103561 151.460647 
L 268.218172 152.552466 
L 272.332784 152.853907 
L 276.447396 153.277441 
L 280.562008 154.863524 
L 284.676619 154.316697 
L 288.791231 155.890857 
L 292.905843 155.785838 
L 297.020455 155.945078 
L 301.135066 155.994783 
L 305.249678 157.122302 
L 309.36429 158.54269 
L 313.478902 158.542972 
L 317.593513 159.080944 
L 321.708125 159.010849 
L 325.822737 159.780591 
L 329.937348 159.237045 
L 334.05196 160.527331 
L 338.166572 160.850221 
L 342.281184 161.544088 
L 346.395795 161.871334 
L 350.510407 161.813078 
L 354.625019 162.733455 
L 358.739631 162.23554 
L 362.854242 161.646603 
L 366.968854 163.583776 
L 371.083466 164.077264 
L 375.198078 163.699798 
L 379.312689 163.743065 
L 383.427301 164.515632 
L 387.541913 164.740254 
L 391.656525 165.299583 
L 395.771136 166.248986 
L 399.885748 165.595436 
L 404.00036 165.81017 
L 408.114972 167.286739 
L 412.229583 166.106897 
L 416.344195 167.94066 
L 420.458848 168.268516 
L 424.573419 167.421031 
L 428.68803 168.822158 
L 432.802642 168.954256 
L 436.917254 170.40919 
L 441.031907 168.775374 
L 445.146477 170.025043 
L 449.261089 169.230784 
L 453.375701 170.413699 
L 457.490313 170.794177 
L 461.604965 171.154315 
L 465.719536 172.643662 
L 469.834148 173.347517 
L 473.948759 173.091855 
L 478.063371 172.734903 
L 482.178024 171.210264 
L 486.292595 170.270023 
L 490.407206 170.040692 
L 494.521818 170.372615 
L 498.63643 171.302295 
L 502.751042 170.34699 
L 506.865653 171.219673 
L 510.980265 165.615364 
L 515.094877 171.161307 
L 519.209489 162.795271 
L 523.3241 167.229284 
L 527.438712 169.350708 
L 531.553324 168.99996 
L 535.667936 167.865199 
L 539.782547 162.752709 
L 543.897159 157.057922 
L 548.011771 161.832135 
L 552.126383 158.528297 
L 556.240994 159.868783 
L 560.355606 160.41635 
L 564.470218 161.847681 
L 568.58483 161.378104 
" clip-path="url(#pe296b2dd07)" style="fill: none; stroke: #ffa500; stroke-width: 1.5; stroke-linecap: square"/>
   </g>
   <g id="patch_3">
    <path d="M 50.14375 204.96046 
L 50.14375 22.318125 
" style="fill: none; stroke: #000000; stroke-width: 0.8; stroke-linejoin: miter; stroke-linecap: square"/>
   </g>
   <g id="patch_4">
    <path d="M 593.2725 204.96046 
L 593.2725 22.318125 
" style="fill: none; stroke: #000000; stroke-width: 0.8; stroke-linejoin: miter; stroke-linecap: square"/>
   </g>
   <g id="patch_5">
    <path d="M 50.14375 204.96046 
L 593.2725 204.96046 
" style="fill: none; stroke: #000000; stroke-width: 0.8; stroke-linejoin: miter; stroke-linecap: square"/>
   </g>
   <g id="patch_6">
    <path d="M 50.14375 22.318125 
L 593.2725 22.318125 
" style="fill: none; stroke: #000000; stroke-width: 0.8; stroke-linejoin: miter; stroke-linecap: square"/>
   </g>
   <g id="text_15">
    <!-- Torque Comparison -->
    <g transform="translate(263.89625 16.318125) scale(0.12 -0.12)">
     <defs>
      <path id="DejaVuSans-20" transform="scale(0.015625)"/>
      <path id="DejaVuSans-43" d="M 4122 4306 
L 4122 3641 
Q 3803 3938 3442 4084 
Q 3081 4231 2675 4231 
Q 1875 4231 1450 3742 
Q 1025 3253 1025 2328 
Q 1025 1406 1450 917 
Q 1875 428 2675 428 
Q 3081 428 3442 575 
Q 3803 722 4122 1019 
L 4122 359 
Q 3791 134 3420 21 
Q 3050 -91 2638 -91 
Q 1578 -91 968 557 
Q 359 1206 359 2328 
Q 359 3453 968 4101 
Q 1578 4750 2638 4750 
Q 3056 4750 3426 4639 
Q 3797 4528 4122 4306 
z
" transform="scale(0.015625)"/>
      <path id="DejaVuSans-6d" d="M 3328 2828 
Q 3544 3216 3844 3400 
Q 4144 3584 4550 3584 
Q 5097 3584 5394 3201 
Q 5691 2819 5691 2113 
L 5691 0 
L 5113 0 
L 5113 2094 
Q 5113 2597 4934 2840 
Q 4756 3084 4391 3084 
Q 3944 3084 3684 2787 
Q 3425 2491 3425 1978 
L 3425 0 
L 2847 0 
L 2847 2094 
Q 2847 2600 2669 2842 
Q 2491 3084 2119 3084 
Q 1678 3084 1418 2786 
Q 1159 2488 1159 1978 
L 1159 0 
L 581 0 
L 581 3500 
L 1159 3500 
L 1159 2956 
Q 1356 3278 1631 3431 
Q 1906 3584 2284 3584 
Q 2666 3584 2933 3390 
Q 3200 3197 3328 2828 
z
" transform="scale(0.015625)"/>
      <path id="DejaVuSans-70" d="M 1159 525 
L 1159 -1331 
L 581 -1331 
L 581 3500 
L 1159 3500 
L 1159 2969 
Q 1341 3281 1617 3432 
Q 1894 3584 2278 3584 
Q 2916 3584 3314 3078 
Q 3713 2572 3713 1747 
Q 3713 922 3314 415 
Q 2916 -91 2278 -91 
Q 1894 -91 1617 61 
Q 1341 213 1159 525 
z
M 3116 1747 
Q 3116 2381 2855 2742 
Q 2594 3103 2138 3103 
Q 1681 3103 1420 2742 
Q 1159 2381 1159 1747 
Q 1159 1113 1420 752 
Q 1681 391 2138 391 
Q 2594 391 2855 752 
Q 3116 1113 3116 1747 
z
" transform="scale(0.015625)"/>
      <path id="DejaVuSans-69" d="M 603 3500 
L 1178 3500 
L 1178 0 
L 603 0 
L 603 3500 
z
M 603 4863 
L 1178 4863 
L 1178 4134 
L 603 4134 
L 603 4863 
z
" transform="scale(0.015625)"/>
      <path id="DejaVuSans-73" d="M 2834 3397 
L 2834 2853 
Q 2591 2978 2328 3040 
Q 2066 3103 1784 3103 
Q 1356 3103 1142 2972 
Q 928 2841 928 2578 
Q 928 2378 1081 2264 
Q 1234 2150 1697 2047 
L 1894 2003 
Q 2506 1872 2764 1633 
Q 3022 1394 3022 966 
Q 3022 478 2636 193 
Q 2250 -91 1575 -91 
Q 1294 -91 989 -36 
Q 684 19 347 128 
L 347 722 
Q 666 556 975 473 
Q 1284 391 1588 391 
Q 1994 391 2212 530 
Q 2431 669 2431 922 
Q 2431 1156 2273 1281 
Q 2116 1406 1581 1522 
L 1381 1569 
Q 847 1681 609 1914 
Q 372 2147 372 2553 
Q 372 3047 722 3315 
Q 1072 3584 1716 3584 
Q 2034 3584 2315 3537 
Q 2597 3491 2834 3397 
z
" transform="scale(0.015625)"/>
      <path id="DejaVuSans-6e" d="M 3513 2113 
L 3513 0 
L 2938 0 
L 2938 2094 
Q 2938 2591 2744 2837 
Q 2550 3084 2163 3084 
Q 1697 3084 1428 2787 
Q 1159 2491 1159 1978 
L 1159 0 
L 581 0 
L 581 3500 
L 1159 3500 
L 1159 2956 
Q 1366 3272 1645 3428 
Q 1925 3584 2291 3584 
Q 2894 3584 3203 3211 
Q 3513 2838 3513 2113 
z
" transform="scale(0.015625)"/>
     </defs>
     <use xlink:href="#DejaVuSans-54"/>
     <use xlink:href="#DejaVuSans-6f" transform="translate(44.083984 0)"/>
     <use xlink:href="#DejaVuSans-72" transform="translate(105.265625 0)"/>
     <use xlink:href="#DejaVuSans-71" transform="translate(144.628906 0)"/>
     <use xlink:href="#DejaVuSans-75" transform="translate(208.105469 0)"/>
     <use xlink:href="#DejaVuSans-65" transform="translate(271.484375 0)"/>
     <use xlink:href="#DejaVuSans-20" transform="translate(333.007812 0)"/>
     <use xlink:href="#DejaVuSans-43" transform="translate(364.794922 0)"/>
     <use xlink:href="#DejaVuSans-6f" transform="translate(434.619141 0)"/>
     <use xlink:href="#DejaVuSans-6d" transform="translate(495.800781 0)"/>
     <use xlink:href="#DejaVuSans-70" transform="translate(593.212891 0)"/>
     <use xlink:href="#DejaVuSans-61" transform="translate(656.689453 0)"/>
     <use xlink:href="#DejaVuSans-72" transform="translate(717.96875 0)"/>
     <use xlink:href="#DejaVuSans-69" transform="translate(759.082031 0)"/>
     <use xlink:href="#DejaVuSans-73" transform="translate(786.865234 0)"/>
     <use xlink:href="#DejaVuSans-6f" transform="translate(838.964844 0)"/>
     <use xlink:href="#DejaVuSans-6e" transform="translate(900.146484 0)"/>
    </g>
   </g>
   <g id="legend_1">
    <g id="patch_7">
     <path d="M 491.46 129.817418 
L 586.2725 129.817418 
Q 588.2725 129.817418 588.2725 127.817418 
L 588.2725 99.461168 
Q 588.2725 97.461168 586.2725 97.461168 
L 491.46 97.461168 
Q 489.46 97.461168 489.46 99.461168 
L 489.46 127.817418 
Q 489.46 129.817418 491.46 129.817418 
z
" style="fill: #ffffff; opacity: 0.8; stroke: #cccccc; stroke-linejoin: miter"/>
    </g>
    <g id="line2d_27">
     <path d="M 493.46 105.559605 
L 503.46 105.559605 
L 513.46 105.559605 
" style="fill: none; stroke: #0000ff; stroke-width: 1.5; stroke-linecap: square"/>
    </g>
    <g id="text_16">
     <!-- Left Torque -->
     <g transform="translate(521.46 109.059605) scale(0.1 -0.1)">
      <defs>
       <path id="DejaVuSans-4c" d="M 628 4666 
L 1259 4666 
L 1259 531 
L 3531 531 
L 3531 0 
L 628 0 
L 628 4666 
z
" transform="scale(0.015625)"/>
       <path id="DejaVuSans-66" d="M 2375 4863 
L 2375 4384 
L 1825 4384 
Q 1516 4384 1395 4259 
Q 1275 4134 1275 3809 
L 1275 3500 
L 2222 3500 
L 2222 3053 
L 1275 3053 
L 1275 0 
L 697 0 
L 697 3053 
L 147 3053 
L 147 3500 
L 697 3500 
L 697 3744 
Q 697 4328 969 4595 
Q 1241 4863 1831 4863 
L 2375 4863 
z
" transform="scale(0.015625)"/>
      </defs>
      <use xlink:href="#DejaVuSans-4c"/>
      <use xlink:href="#DejaVuSans-65" transform="translate(53.962891 0)"/>
      <use xlink:href="#DejaVuSans-66" transform="translate(115.486328 0)"/>
      <use xlink:href="#DejaVuSans-74" transform="translate(148.941406 0)"/>
      <use xlink:href="#DejaVuSans-20" transform="translate(188.150391 0)"/>
      <use xlink:href="#DejaVuSans-54" transform="translate(219.9375 0)"/>
      <use xlink:href="#DejaVuSans-6f" transform="translate(264.021484 0)"/>
      <use xlink:href="#DejaVuSans-72" transform="translate(325.203125 0)"/>
      <use xlink:href="#DejaVuSans-71" transform="translate(364.566406 0)"/>
      <use xlink:href="#DejaVuSans-75" transform="translate(428.042969 0)"/>
      <use xlink:href="#DejaVuSans-65" transform="translate(491.421875 0)"/>
     </g>
    </g>
    <g id="line2d_28">
     <path d="M 493.46 120.23773 
L 503.46 120.23773 
L 513.46 120.23773 
" style="fill: none; stroke: #ffa500; stroke-width: 1.5; stroke-linecap: square"/>
    </g>
    <g id="text_17">
     <!-- Right Torque -->
     <g transform="translate(521.46 123.73773) scale(0.1 -0.1)">
      <defs>
       <path id="DejaVuSans-52" d="M 2841 2188 
Q 3044 2119 3236 1894 
Q 3428 1669 3622 1275 
L 4263 0 
L 3584 0 
L 2988 1197 
Q 2756 1666 2539 1819 
Q 2322 1972 1947 1972 
L 1259 1972 
L 1259 0 
L 628 0 
L 628 4666 
L 2053 4666 
Q 2853 4666 3247 4331 
Q 3641 3997 3641 3322 
Q 3641 2881 3436 2590 
Q 3231 2300 2841 2188 
z
M 1259 4147 
L 1259 2491 
L 2053 2491 
Q 2509 2491 2742 2702 
Q 2975 2913 2975 3322 
Q 2975 3731 2742 3939 
Q 2509 4147 2053 4147 
L 1259 4147 
z
" transform="scale(0.015625)"/>
       <path id="DejaVuSans-68" d="M 3513 2113 
L 3513 0 
L 2938 0 
L 2938 2094 
Q 2938 2591 2744 2837 
Q 2550 3084 2163 3084 
Q 1697 3084 1428 2787 
Q 1159 2491 1159 1978 
L 1159 0 
L 581 0 
L 581 4863 
L 1159 4863 
L 1159 2956 
Q 1366 3272 1645 3428 
Q 1925 3584 2291 3584 
Q 2894 3584 3203 3211 
Q 3513 2838 3513 2113 
z
" transform="scale(0.015625)"/>
      </defs>
      <use xlink:href="#DejaVuSans-52"/>
      <use xlink:href="#DejaVuSans-69" transform="translate(69.482422 0)"/>
      <use xlink:href="#DejaVuSans-67" transform="translate(97.265625 0)"/>
      <use xlink:href="#DejaVuSans-68" transform="translate(160.742188 0)"/>
      <use xlink:href="#DejaVuSans-74" transform="translate(224.121094 0)"/>
      <use xlink:href="#DejaVuSans-20" transform="translate(263.330078 0)"/>
      <use xlink:href="#DejaVuSans-54" transform="translate(295.117188 0)"/>
      <use xlink:href="#DejaVuSans-6f" transform="translate(339.201172 0)"/>
      <use xlink:href="#DejaVuSans-72" transform="translate(400.382812 0)"/>
      <use xlink:href="#DejaVuSans-71" transform="translate(439.746094 0)"/>
      <use xlink:href="#DejaVuSans-75" transform="translate(503.222656 0)"/>
      <use xlink:href="#DejaVuSans-65" transform="translate(566.601562 0)"/>
     </g>
    </g>
   </g>
  </g>
  <g id="axes_2">
   <g id="patch_8">
    <path d="M 50.14375 456.27707 
L 593.2725 456.27707 
L 593.2725 273.634735 
L 50.14375 273.634735 
z
" style="fill: #ffffff"/>
   </g>
   <g id="matplotlib.axis_3">
    <g id="xtick_8">
     <g id="line2d_29">
      <path d="M 74.83142 456.27707 
L 74.83142 273.634735 
" clip-path="url(#pa37800425e)" style="fill: none; stroke: #b0b0b0; stroke-width: 0.8; stroke-linecap: square"/>
     </g>
     <g id="line2d_30">
      <g>
       <use xlink:href="#m2319e3ef21" x="74.83142" y="456.27707" style="stroke: #000000; stroke-width: 0.8"/>
      </g>
     </g>
     <g id="text_18">
      <!-- 0 -->
      <g transform="translate(71.65017 470.875508) scale(0.1 -0.1)">
       <use xlink:href="#DejaVuSans-30"/>
      </g>
     </g>
    </g>
    <g id="xtick_9">
     <g id="line2d_31">
      <path d="M 157.123655 456.27707 
L 157.123655 273.634735 
" clip-path="url(#pa37800425e)" style="fill: none; stroke: #b0b0b0; stroke-width: 0.8; stroke-linecap: square"/>
     </g>
     <g id="line2d_32">
      <g>
       <use xlink:href="#m2319e3ef21" x="157.123655" y="456.27707" style="stroke: #000000; stroke-width: 0.8"/>
      </g>
     </g>
     <g id="text_19">
      <!-- 2 -->
      <g transform="translate(153.942405 470.875508) scale(0.1 -0.1)">
       <use xlink:href="#DejaVuSans-32"/>
      </g>
     </g>
    </g>
    <g id="xtick_10">
     <g id="line2d_33">
      <path d="M 239.41589 456.27707 
L 239.41589 273.634735 
" clip-path="url(#pa37800425e)" style="fill: none; stroke: #b0b0b0; stroke-width: 0.8; stroke-linecap: square"/>
     </g>
     <g id="line2d_34">
      <g>
       <use xlink:href="#m2319e3ef21" x="239.41589" y="456.27707" style="stroke: #000000; stroke-width: 0.8"/>
      </g>
     </g>
     <g id="text_20">
      <!-- 4 -->
      <g transform="translate(236.23464 470.875508) scale(0.1 -0.1)">
       <use xlink:href="#DejaVuSans-34"/>
      </g>
     </g>
    </g>
    <g id="xtick_11">
     <g id="line2d_35">
      <path d="M 321.708125 456.27707 
L 321.708125 273.634735 
" clip-path="url(#pa37800425e)" style="fill: none; stroke: #b0b0b0; stroke-width: 0.8; stroke-linecap: square"/>
     </g>
     <g id="line2d_36">
      <g>
       <use xlink:href="#m2319e3ef21" x="321.708125" y="456.27707" style="stroke: #000000; stroke-width: 0.8"/>
      </g>
     </g>
     <g id="text_21">
      <!-- 6 -->
      <g transform="translate(318.526875 470.875508) scale(0.1 -0.1)">
       <use xlink:href="#DejaVuSans-36"/>
      </g>
     </g>
    </g>
    <g id="xtick_12">
     <g id="line2d_37">
      <path d="M 404.00036 456.27707 
L 404.00036 273.634735 
" clip-path="url(#pa37800425e)" style="fill: none; stroke: #b0b0b0; stroke-width: 0.8; stroke-linecap: square"/>
     </g>
     <g id="line2d_38">
      <g>
       <use xlink:href="#m2319e3ef21" x="404.00036" y="456.27707" style="stroke: #000000; stroke-width: 0.8"/>
      </g>
     </g>
     <g id="text_22">
      <!-- 8 -->
      <g transform="translate(400.81911 470.875508) scale(0.1 -0.1)">
       <use xlink:href="#DejaVuSans-38"/>
      </g>
     </g>
    </g>
    <g id="xtick_13">
     <g id="line2d_39">
      <path d="M 486.292595 456.27707 
L 486.292595 273.634735 
" clip-path="url(#pa37800425e)" style="fill: none; stroke: #b0b0b0; stroke-width: 0.8; stroke-linecap: square"/>
     </g>
     <g id="line2d_40">
      <g>
       <use xlink:href="#m2319e3ef21" x="486.292595" y="456.27707" style="stroke: #000000; stroke-width: 0.8"/>
      </g>
     </g>
     <g id="text_23">
      <!-- 10 -->
      <g transform="translate(479.930095 470.875508) scale(0.1 -0.1)">
       <use xlink:href="#DejaVuSans-31"/>
       <use xlink:href="#DejaVuSans-30" transform="translate(63.623047 0)"/>
      </g>
     </g>
    </g>
    <g id="xtick_14">
     <g id="line2d_41">
      <path d="M 568.58483 456.27707 
L 568.58483 273.634735 
" clip-path="url(#pa37800425e)" style="fill: none; stroke: #b0b0b0; stroke-width: 0.8; stroke-linecap: square"/>
     </g>
     <g id="line2d_42">
      <g>
       <use xlink:href="#m2319e3ef21" x="568.58483" y="456.27707" style="stroke: #000000; stroke-width: 0.8"/>
      </g>
     </g>
     <g id="text_24">
      <!-- 12 -->
      <g transform="translate(562.22233 470.875508) scale(0.1 -0.1)">
       <use xlink:href="#DejaVuSans-31"/>
       <use xlink:href="#DejaVuSans-32" transform="translate(63.623047 0)"/>
      </g>
     </g>
    </g>
    <g id="text_25">
     <!-- Voltage -->
     <g transform="translate(302.951875 484.553633) scale(0.1 -0.1)">
      <use xlink:href="#DejaVuSans-56"/>
      <use xlink:href="#DejaVuSans-6f" transform="translate(60.658203 0)"/>
      <use xlink:href="#DejaVuSans-6c" transform="translate(121.839844 0)"/>
      <use xlink:href="#DejaVuSans-74" transform="translate(149.623047 0)"/>
      <use xlink:href="#DejaVuSans-61" transform="translate(188.832031 0)"/>
      <use xlink:href="#DejaVuSans-67" transform="translate(250.111328 0)"/>
      <use xlink:href="#DejaVuSans-65" transform="translate(313.587891 0)"/>
     </g>
    </g>
   </g>
   <g id="matplotlib.axis_4">
    <g id="ytick_6">
     <g id="line2d_43">
      <path d="M 50.14375 447.975146 
L 593.2725 447.975146 
" clip-path="url(#pa37800425e)" style="fill: none; stroke: #b0b0b0; stroke-width: 0.8; stroke-linecap: square"/>
     </g>
     <g id="line2d_44">
      <g>
       <use xlink:href="#md478b695c7" x="50.14375" y="447.975146" style="stroke: #000000; stroke-width: 0.8"/>
      </g>
     </g>
     <g id="text_26">
      <!-- 0.0 -->
      <g transform="translate(27.240625 451.774365) scale(0.1 -0.1)">
       <use xlink:href="#DejaVuSans-30"/>
       <use xlink:href="#DejaVuSans-2e" transform="translate(63.623047 0)"/>
       <use xlink:href="#DejaVuSans-30" transform="translate(95.410156 0)"/>
      </g>
     </g>
    </g>
    <g id="ytick_7">
     <g id="line2d_45">
      <path d="M 50.14375 421.652462 
L 593.2725 421.652462 
" clip-path="url(#pa37800425e)" style="fill: none; stroke: #b0b0b0; stroke-width: 0.8; stroke-linecap: square"/>
     </g>
     <g id="line2d_46">
      <g>
       <use xlink:href="#md478b695c7" x="50.14375" y="421.652462" style="stroke: #000000; stroke-width: 0.8"/>
      </g>
     </g>
     <g id="text_27">
      <!-- 0.5 -->
      <g transform="translate(27.240625 425.451681) scale(0.1 -0.1)">
       <defs>
        <path id="DejaVuSans-35" d="M 691 4666 
L 3169 4666 
L 3169 4134 
L 1269 4134 
L 1269 2991 
Q 1406 3038 1543 3061 
Q 1681 3084 1819 3084 
Q 2600 3084 3056 2656 
Q 3513 2228 3513 1497 
Q 3513 744 3044 326 
Q 2575 -91 1722 -91 
Q 1428 -91 1123 -41 
Q 819 9 494 109 
L 494 744 
Q 775 591 1075 516 
Q 1375 441 1709 441 
Q 2250 441 2565 725 
Q 2881 1009 2881 1497 
Q 2881 1984 2565 2268 
Q 2250 2553 1709 2553 
Q 1456 2553 1204 2497 
Q 953 2441 691 2322 
L 691 4666 
z
" transform="scale(0.015625)"/>
       </defs>
       <use xlink:href="#DejaVuSans-30"/>
       <use xlink:href="#DejaVuSans-2e" transform="translate(63.623047 0)"/>
       <use xlink:href="#DejaVuSans-35" transform="translate(95.410156 0)"/>
      </g>
     </g>
    </g>
    <g id="ytick_8">
     <g id="line2d_47">
      <path d="M 50.14375 395.329779 
L 593.2725 395.329779 
" clip-path="url(#pa37800425e)" style="fill: none; stroke: #b0b0b0; stroke-width: 0.8; stroke-linecap: square"/>
     </g>
     <g id="line2d_48">
      <g>
       <use xlink:href="#md478b695c7" x="50.14375" y="395.329779" style="stroke: #000000; stroke-width: 0.8"/>
      </g>
     </g>
     <g id="text_28">
      <!-- 1.0 -->
      <g transform="translate(27.240625 399.128998) scale(0.1 -0.1)">
       <use xlink:href="#DejaVuSans-31"/>
       <use xlink:href="#DejaVuSans-2e" transform="translate(63.623047 0)"/>
       <use xlink:href="#DejaVuSans-30" transform="translate(95.410156 0)"/>
      </g>
     </g>
    </g>
    <g id="ytick_9">
     <g id="line2d_49">
      <path d="M 50.14375 369.007095 
L 593.2725 369.007095 
" clip-path="url(#pa37800425e)" style="fill: none; stroke: #b0b0b0; stroke-width: 0.8; stroke-linecap: square"/>
     </g>
     <g id="line2d_50">
      <g>
       <use xlink:href="#md478b695c7" x="50.14375" y="369.007095" style="stroke: #000000; stroke-width: 0.8"/>
      </g>
     </g>
     <g id="text_29">
      <!-- 1.5 -->
      <g transform="translate(27.240625 372.806314) scale(0.1 -0.1)">
       <use xlink:href="#DejaVuSans-31"/>
       <use xlink:href="#DejaVuSans-2e" transform="translate(63.623047 0)"/>
       <use xlink:href="#DejaVuSans-35" transform="translate(95.410156 0)"/>
      </g>
     </g>
    </g>
    <g id="ytick_10">
     <g id="line2d_51">
      <path d="M 50.14375 342.684412 
L 593.2725 342.684412 
" clip-path="url(#pa37800425e)" style="fill: none; stroke: #b0b0b0; stroke-width: 0.8; stroke-linecap: square"/>
     </g>
     <g id="line2d_52">
      <g>
       <use xlink:href="#md478b695c7" x="50.14375" y="342.684412" style="stroke: #000000; stroke-width: 0.8"/>
      </g>
     </g>
     <g id="text_30">
      <!-- 2.0 -->
      <g transform="translate(27.240625 346.483631) scale(0.1 -0.1)">
       <use xlink:href="#DejaVuSans-32"/>
       <use xlink:href="#DejaVuSans-2e" transform="translate(63.623047 0)"/>
       <use xlink:href="#DejaVuSans-30" transform="translate(95.410156 0)"/>
      </g>
     </g>
    </g>
    <g id="ytick_11">
     <g id="line2d_53">
      <path d="M 50.14375 316.361728 
L 593.2725 316.361728 
" clip-path="url(#pa37800425e)" style="fill: none; stroke: #b0b0b0; stroke-width: 0.8; stroke-linecap: square"/>
     </g>
     <g id="line2d_54">
      <g>
       <use xlink:href="#md478b695c7" x="50.14375" y="316.361728" style="stroke: #000000; stroke-width: 0.8"/>
      </g>
     </g>
     <g id="text_31">
      <!-- 2.5 -->
      <g transform="translate(27.240625 320.160947) scale(0.1 -0.1)">
       <use xlink:href="#DejaVuSans-32"/>
       <use xlink:href="#DejaVuSans-2e" transform="translate(63.623047 0)"/>
       <use xlink:href="#DejaVuSans-35" transform="translate(95.410156 0)"/>
      </g>
     </g>
    </g>
    <g id="ytick_12">
     <g id="line2d_55">
      <path d="M 50.14375 290.039045 
L 593.2725 290.039045 
" clip-path="url(#pa37800425e)" style="fill: none; stroke: #b0b0b0; stroke-width: 0.8; stroke-linecap: square"/>
     </g>
     <g id="line2d_56">
      <g>
       <use xlink:href="#md478b695c7" x="50.14375" y="290.039045" style="stroke: #000000; stroke-width: 0.8"/>
      </g>
     </g>
     <g id="text_32">
      <!-- 3.0 -->
      <g transform="translate(27.240625 293.838264) scale(0.1 -0.1)">
       <use xlink:href="#DejaVuSans-33"/>
       <use xlink:href="#DejaVuSans-2e" transform="translate(63.623047 0)"/>
       <use xlink:href="#DejaVuSans-30" transform="translate(95.410156 0)"/>
      </g>
     </g>
    </g>
    <g id="text_33">
     <!-- Power -->
     <g transform="translate(21.160937 380.069965) rotate(-90) scale(0.1 -0.1)">
      <defs>
       <path id="DejaVuSans-50" d="M 1259 4147 
L 1259 2394 
L 2053 2394 
Q 2494 2394 2734 2622 
Q 2975 2850 2975 3272 
Q 2975 3691 2734 3919 
Q 2494 4147 2053 4147 
L 1259 4147 
z
M 628 4666 
L 2053 4666 
Q 2838 4666 3239 4311 
Q 3641 3956 3641 3272 
Q 3641 2581 3239 2228 
Q 2838 1875 2053 1875 
L 1259 1875 
L 1259 0 
L 628 0 
L 628 4666 
z
" transform="scale(0.015625)"/>
       <path id="DejaVuSans-77" d="M 269 3500 
L 844 3500 
L 1563 769 
L 2278 3500 
L 2956 3500 
L 3675 769 
L 4391 3500 
L 4966 3500 
L 4050 0 
L 3372 0 
L 2619 2869 
L 1863 0 
L 1184 0 
L 269 3500 
z
" transform="scale(0.015625)"/>
      </defs>
      <use xlink:href="#DejaVuSans-50"/>
      <use xlink:href="#DejaVuSans-6f" transform="translate(56.677734 0)"/>
      <use xlink:href="#DejaVuSans-77" transform="translate(117.859375 0)"/>
      <use xlink:href="#DejaVuSans-65" transform="translate(199.646484 0)"/>
      <use xlink:href="#DejaVuSans-72" transform="translate(261.169922 0)"/>
     </g>
    </g>
   </g>
   <g id="line2d_57">
    <path d="M 74.83142 447.975146 
L 78.946032 447.975146 
L 83.060644 447.975146 
L 87.175256 447.975146 
L 91.289867 447.975146 
L 95.404479 447.975146 
L 99.519091 447.975146 
L 103.633703 447.975146 
L 107.748314 447.975146 
L 111.862926 447.91517 
L 115.977538 447.783936 
L 120.09215 447.975146 
L 124.206761 447.975146 
L 128.321373 447.612373 
L 132.435985 445.303795 
L 136.550597 446.874877 
L 140.665208 445.309768 
L 144.77982 443.678063 
L 148.894432 441.203341 
L 153.009044 440.938124 
L 157.123655 439.546475 
L 161.238267 437.779291 
L 165.352879 436.374192 
L 169.467491 434.947418 
L 173.582102 433.460223 
L 177.696714 433.171806 
L 181.811326 431.694382 
L 185.925938 430.085139 
L 190.040549 428.584352 
L 194.155161 426.943206 
L 198.269773 425.255738 
L 202.384384 425.315238 
L 206.498996 423.777782 
L 210.613608 422.219953 
L 214.72822 420.95319 
L 218.842831 419.721667 
L 222.957443 418.052041 
L 227.072055 417.905313 
L 231.186667 416.364957 
L 235.301278 414.553514 
L 239.41589 413.686892 
L 243.530502 411.999887 
L 247.645114 411.0449 
L 251.759725 410.767938 
L 255.874337 408.50364 
L 259.988949 407.190006 
L 264.103561 408.161598 
L 268.218172 405.815709 
L 272.332784 404.078497 
L 276.447396 404.629967 
L 280.562008 403.55845 
L 284.676619 401.569792 
L 288.791231 400.314021 
L 292.905843 398.810585 
L 297.020455 398.012808 
L 301.135066 397.123217 
L 305.249678 395.705483 
L 309.36429 394.421594 
L 313.478902 392.768529 
L 317.593513 391.214859 
L 321.708125 389.798067 
L 325.822737 389.612597 
L 329.937348 388.829392 
L 334.05196 387.468036 
L 338.166572 386.720998 
L 342.281184 384.935899 
L 346.395795 385.818972 
L 350.510407 383.64614 
L 354.625019 382.387968 
L 358.739631 381.26857 
L 362.854242 380.682258 
L 366.968854 379.483418 
L 371.083466 377.882841 
L 375.198078 378.399292 
L 379.312689 377.638409 
L 383.427301 375.62546 
L 387.541913 374.373922 
L 391.656525 371.746181 
L 395.771136 371.86974 
L 399.885748 371.282744 
L 404.00036 369.64621 
L 408.114972 368.963347 
L 412.229583 368.072219 
L 416.344195 366.521497 
L 420.458848 366.116865 
L 424.573419 365.79199 
L 428.68803 365.271959 
L 432.802642 362.94814 
L 436.917254 360.894392 
L 441.031907 361.897233 
L 445.146477 359.686654 
L 449.261089 358.538775 
L 453.375701 357.534091 
L 457.490313 356.804215 
L 461.604965 356.550675 
L 465.719536 355.452019 
L 469.834148 355.276762 
L 473.948759 352.62591 
L 478.063371 353.968051 
L 482.178024 348.291828 
L 486.292595 344.701835 
L 490.407206 341.426503 
L 494.521818 342.292941 
L 498.63643 339.979546 
L 502.751042 335.649517 
L 506.865653 334.393556 
L 510.980265 329.723017 
L 515.094877 319.573359 
L 519.209489 315.626588 
L 523.3241 315.38542 
L 527.438712 311.004746 
L 531.553324 311.061445 
L 535.667936 321.049324 
L 539.782547 296.769492 
L 543.897159 300.382596 
L 548.011771 311.354048 
L 552.126383 305.269349 
L 556.240994 303.507362 
L 560.355606 292.964074 
L 564.470218 281.93666 
L 568.58483 282.833158 
" clip-path="url(#pa37800425e)" style="fill: none; stroke: #0000ff; stroke-width: 1.5; stroke-linecap: square"/>
   </g>
   <g id="line2d_58">
    <path d="M 74.83142 447.975146 
L 78.946032 447.975146 
L 83.060644 447.975146 
L 87.175256 447.975146 
L 91.289867 447.975146 
L 95.404479 447.975146 
L 99.519091 447.975146 
L 103.633703 447.975146 
L 107.748314 447.975146 
L 111.862926 447.975146 
L 115.977538 447.176163 
L 120.09215 446.474316 
L 124.206761 445.918782 
L 128.321373 445.850552 
L 132.435985 445.576631 
L 136.550597 445.170429 
L 140.665208 445.050162 
L 144.77982 444.704518 
L 148.894432 444.098372 
L 153.009044 444.100318 
L 157.123655 443.339484 
L 161.238267 442.852703 
L 165.352879 441.414359 
L 169.467491 440.769801 
L 173.582102 439.879889 
L 177.696714 439.788507 
L 181.811326 439.262675 
L 185.925938 438.207719 
L 190.040549 437.821002 
L 194.155161 437.113943 
L 198.269773 436.434013 
L 202.384384 436.41406 
L 206.498996 436.045221 
L 210.613608 435.492945 
L 214.72822 434.864223 
L 218.842831 434.359591 
L 222.957443 434.407635 
L 227.072055 434.29401 
L 231.186667 433.740913 
L 235.301278 433.39478 
L 239.41589 432.731701 
L 243.530502 432.833249 
L 247.645114 431.991297 
L 251.759725 432.298551 
L 255.874337 431.566712 
L 259.988949 431.079884 
L 264.103561 431.043696 
L 268.218172 431.002122 
L 272.332784 430.727671 
L 276.447396 430.927318 
L 280.562008 430.977005 
L 284.676619 430.423628 
L 288.791231 430.591019 
L 292.905843 430.123334 
L 297.020455 429.727246 
L 301.135066 429.658017 
L 305.249678 429.881012 
L 309.36429 429.95798 
L 313.478902 429.519618 
L 317.593513 429.378876 
L 321.708125 428.880645 
L 325.822737 429.26563 
L 329.937348 428.624215 
L 334.05196 428.897639 
L 338.166572 428.557924 
L 342.281184 428.607268 
L 346.395795 428.720135 
L 350.510407 428.315987 
L 354.625019 428.520277 
L 358.739631 427.816966 
L 362.854242 427.042011 
L 366.968854 427.720873 
L 371.083466 427.609117 
L 375.198078 427.380652 
L 379.312689 427.130718 
L 383.427301 427.397278 
L 387.541913 427.157383 
L 391.656525 427.062785 
L 395.771136 427.562042 
L 399.885748 426.878994 
L 404.00036 426.725365 
L 408.114972 427.497593 
L 412.229583 426.226892 
L 416.344195 427.212034 
L 420.458848 427.160189 
L 424.573419 426.57342 
L 428.68803 427.206149 
L 432.802642 427.087749 
L 436.917254 428.094818 
L 441.031907 426.346771 
L 445.146477 427.003222 
L 449.261089 426.577384 
L 453.375701 427.145785 
L 457.490313 427.023569 
L 461.604965 427.044185 
L 465.719536 427.842826 
L 469.834148 428.283689 
L 473.948759 427.99146 
L 478.063371 427.570949 
L 482.178024 426.086655 
L 486.292595 425.008157 
L 490.407206 424.564236 
L 494.521818 424.784951 
L 498.63643 425.336333 
L 502.751042 424.217124 
L 506.865653 424.810726 
L 510.980265 419.412723 
L 515.094877 424.216981 
L 519.209489 415.890848 
L 523.3241 420.098977 
L 527.438712 421.906303 
L 531.553324 421.245687 
L 535.667936 419.780604 
L 539.782547 414.599263 
L 543.897159 408.417117 
L 548.011771 413.116237 
L 552.126383 409.471725 
L 556.240994 410.415509 
L 560.355606 410.752108 
L 564.470218 411.926842 
L 568.58483 410.996972 
" clip-path="url(#pa37800425e)" style="fill: none; stroke: #ffa500; stroke-width: 1.5; stroke-linecap: square"/>
   </g>
   <g id="patch_9">
    <path d="M 50.14375 456.27707 
L 50.14375 273.634735 
" style="fill: none; stroke: #000000; stroke-width: 0.8; stroke-linejoin: miter; stroke-linecap: square"/>
   </g>
   <g id="patch_10">
    <path d="M 593.2725 456.27707 
L 593.2725 273.634735 
" style="fill: none; stroke: #000000; stroke-width: 0.8; stroke-linejoin: miter; stroke-linecap: square"/>
   </g>
   <g id="patch_11">
    <path d="M 50.14375 456.27707 
L 593.2725 456.27707 
" style="fill: none; stroke: #000000; stroke-width: 0.8; stroke-linejoin: miter; stroke-linecap: square"/>
   </g>
   <g id="patch_12">
    <path d="M 50.14375 273.634735 
L 593.2725 273.634735 
" style="fill: none; stroke: #000000; stroke-width: 0.8; stroke-linejoin: miter; stroke-linecap: square"/>
   </g>
   <g id="text_34">
    <!-- Power Comparison -->
    <g transform="translate(265.740313 267.634735) scale(0.12 -0.12)">
     <use xlink:href="#DejaVuSans-50"/>
     <use xlink:href="#DejaVuSans-6f" transform="translate(56.677734 0)"/>
     <use xlink:href="#DejaVuSans-77" transform="translate(117.859375 0)"/>
     <use xlink:href="#DejaVuSans-65" transform="translate(199.646484 0)"/>
     <use xlink:href="#DejaVuSans-72" transform="translate(261.169922 0)"/>
     <use xlink:href="#DejaVuSans-20" transform="translate(302.283203 0)"/>
     <use xlink:href="#DejaVuSans-43" transform="translate(334.070312 0)"/>
     <use xlink:href="#DejaVuSans-6f" transform="translate(403.894531 0)"/>
     <use xlink:href="#DejaVuSans-6d" transform="translate(465.076172 0)"/>
     <use xlink:href="#DejaVuSans-70" transform="translate(562.488281 0)"/>
     <use xlink:href="#DejaVuSans-61" transform="translate(625.964844 0)"/>
     <use xlink:href="#DejaVuSans-72" transform="translate(687.244141 0)"/>
     <use xlink:href="#DejaVuSans-69" transform="translate(728.357422 0)"/>
     <use xlink:href="#DejaVuSans-73" transform="translate(756.140625 0)"/>
     <use xlink:href="#DejaVuSans-6f" transform="translate(808.240234 0)"/>
     <use xlink:href="#DejaVuSans-6e" transform="translate(869.421875 0)"/>
    </g>
   </g>
   <g id="legend_2">
    <g id="patch_13">
     <path d="M 57.14375 310.990985 
L 148.882812 310.990985 
Q 150.882812 310.990985 150.882812 308.990985 
L 150.882812 280.634735 
Q 150.882812 278.634735 148.882812 278.634735 
L 57.14375 278.634735 
Q 55.14375 278.634735 55.14375 280.634735 
L 55.14375 308.990985 
Q 55.14375 310.990985 57.14375 310.990985 
z
" style="fill: #ffffff; opacity: 0.8; stroke: #cccccc; stroke-linejoin: miter"/>
    </g>
    <g id="line2d_59">
     <path d="M 59.14375 286.733173 
L 69.14375 286.733173 
L 79.14375 286.733173 
" style="fill: none; stroke: #0000ff; stroke-width: 1.5; stroke-linecap: square"/>
    </g>
    <g id="text_35">
     <!-- Left Power -->
     <g transform="translate(87.14375 290.233173) scale(0.1 -0.1)">
      <use xlink:href="#DejaVuSans-4c"/>
      <use xlink:href="#DejaVuSans-65" transform="translate(53.962891 0)"/>
      <use xlink:href="#DejaVuSans-66" transform="translate(115.486328 0)"/>
      <use xlink:href="#DejaVuSans-74" transform="translate(148.941406 0)"/>
      <use xlink:href="#DejaVuSans-20" transform="translate(188.150391 0)"/>
      <use xlink:href="#DejaVuSans-50" transform="translate(219.9375 0)"/>
      <use xlink:href="#DejaVuSans-6f" transform="translate(276.615234 0)"/>
      <use xlink:href="#DejaVuSans-77" transform="translate(337.796875 0)"/>
      <use xlink:href="#DejaVuSans-65" transform="translate(419.583984 0)"/>
      <use xlink:href="#DejaVuSans-72" transform="translate(481.107422 0)"/>
     </g>
    </g>
    <g id="line2d_60">
     <path d="M 59.14375 301.411298 
L 69.14375 301.411298 
L 79.14375 301.411298 
" style="fill: none; stroke: #ffa500; stroke-width: 1.5; stroke-linecap: square"/>
    </g>
    <g id="text_36">
     <!-- Right Power -->
     <g transform="translate(87.14375 304.911298) scale(0.1 -0.1)">
      <use xlink:href="#DejaVuSans-52"/>
      <use xlink:href="#DejaVuSans-69" transform="translate(69.482422 0)"/>
      <use xlink:href="#DejaVuSans-67" transform="translate(97.265625 0)"/>
      <use xlink:href="#DejaVuSans-68" transform="translate(160.742188 0)"/>
      <use xlink:href="#DejaVuSans-74" transform="translate(224.121094 0)"/>
      <use xlink:href="#DejaVuSans-20" transform="translate(263.330078 0)"/>
      <use xlink:href="#DejaVuSans-50" transform="translate(295.117188 0)"/>
      <use xlink:href="#DejaVuSans-6f" transform="translate(351.794922 0)"/>
      <use xlink:href="#DejaVuSans-77" transform="translate(412.976562 0)"/>
      <use xlink:href="#DejaVuSans-65" transform="translate(494.763672 0)"/>
      <use xlink:href="#DejaVuSans-72" transform="translate(556.287109 0)"/>
     </g>
    </g>
   </g>
  </g>
  <g id="axes_3">
   <g id="patch_14">
    <path d="M 50.14375 707.593681 
L 593.2725 707.593681 
L 593.2725 524.951346 
L 50.14375 524.951346 
z
" style="fill: #ffffff"/>
   </g>
   <g id="matplotlib.axis_5">
    <g id="xtick_15">
     <g id="line2d_61">
      <path d="M 74.83142 707.593681 
L 74.83142 524.951346 
" clip-path="url(#pb30b1b4d43)" style="fill: none; stroke: #b0b0b0; stroke-width: 0.8; stroke-linecap: square"/>
     </g>
     <g id="line2d_62">
      <g>
       <use xlink:href="#m2319e3ef21" x="74.83142" y="707.593681" style="stroke: #000000; stroke-width: 0.8"/>
      </g>
     </g>
     <g id="text_37">
      <!-- 0 -->
      <g transform="translate(71.65017 722.192118) scale(0.1 -0.1)">
       <use xlink:href="#DejaVuSans-30"/>
      </g>
     </g>
    </g>
    <g id="xtick_16">
     <g id="line2d_63">
      <path d="M 157.123655 707.593681 
L 157.123655 524.951346 
" clip-path="url(#pb30b1b4d43)" style="fill: none; stroke: #b0b0b0; stroke-width: 0.8; stroke-linecap: square"/>
     </g>
     <g id="line2d_64">
      <g>
       <use xlink:href="#m2319e3ef21" x="157.123655" y="707.593681" style="stroke: #000000; stroke-width: 0.8"/>
      </g>
     </g>
     <g id="text_38">
      <!-- 2 -->
      <g transform="translate(153.942405 722.192118) scale(0.1 -0.1)">
       <use xlink:href="#DejaVuSans-32"/>
      </g>
     </g>
    </g>
    <g id="xtick_17">
     <g id="line2d_65">
      <path d="M 239.41589 707.593681 
L 239.41589 524.951346 
" clip-path="url(#pb30b1b4d43)" style="fill: none; stroke: #b0b0b0; stroke-width: 0.8; stroke-linecap: square"/>
     </g>
     <g id="line2d_66">
      <g>
       <use xlink:href="#m2319e3ef21" x="239.41589" y="707.593681" style="stroke: #000000; stroke-width: 0.8"/>
      </g>
     </g>
     <g id="text_39">
      <!-- 4 -->
      <g transform="translate(236.23464 722.192118) scale(0.1 -0.1)">
       <use xlink:href="#DejaVuSans-34"/>
      </g>
     </g>
    </g>
    <g id="xtick_18">
     <g id="line2d_67">
      <path d="M 321.708125 707.593681 
L 321.708125 524.951346 
" clip-path="url(#pb30b1b4d43)" style="fill: none; stroke: #b0b0b0; stroke-width: 0.8; stroke-linecap: square"/>
     </g>
     <g id="line2d_68">
      <g>
       <use xlink:href="#m2319e3ef21" x="321.708125" y="707.593681" style="stroke: #000000; stroke-width: 0.8"/>
      </g>
     </g>
     <g id="text_40">
      <!-- 6 -->
      <g transform="translate(318.526875 722.192118) scale(0.1 -0.1)">
       <use xlink:href="#DejaVuSans-36"/>
      </g>
     </g>
    </g>
    <g id="xtick_19">
     <g id="line2d_69">
      <path d="M 404.00036 707.593681 
L 404.00036 524.951346 
" clip-path="url(#pb30b1b4d43)" style="fill: none; stroke: #b0b0b0; stroke-width: 0.8; stroke-linecap: square"/>
     </g>
     <g id="line2d_70">
      <g>
       <use xlink:href="#m2319e3ef21" x="404.00036" y="707.593681" style="stroke: #000000; stroke-width: 0.8"/>
      </g>
     </g>
     <g id="text_41">
      <!-- 8 -->
      <g transform="translate(400.81911 722.192118) scale(0.1 -0.1)">
       <use xlink:href="#DejaVuSans-38"/>
      </g>
     </g>
    </g>
    <g id="xtick_20">
     <g id="line2d_71">
      <path d="M 486.292595 707.593681 
L 486.292595 524.951346 
" clip-path="url(#pb30b1b4d43)" style="fill: none; stroke: #b0b0b0; stroke-width: 0.8; stroke-linecap: square"/>
     </g>
     <g id="line2d_72">
      <g>
       <use xlink:href="#m2319e3ef21" x="486.292595" y="707.593681" style="stroke: #000000; stroke-width: 0.8"/>
      </g>
     </g>
     <g id="text_42">
      <!-- 10 -->
      <g transform="translate(479.930095 722.192118) scale(0.1 -0.1)">
       <use xlink:href="#DejaVuSans-31"/>
       <use xlink:href="#DejaVuSans-30" transform="translate(63.623047 0)"/>
      </g>
     </g>
    </g>
    <g id="xtick_21">
     <g id="line2d_73">
      <path d="M 568.58483 707.593681 
L 568.58483 524.951346 
" clip-path="url(#pb30b1b4d43)" style="fill: none; stroke: #b0b0b0; stroke-width: 0.8; stroke-linecap: square"/>
     </g>
     <g id="line2d_74">
      <g>
       <use xlink:href="#m2319e3ef21" x="568.58483" y="707.593681" style="stroke: #000000; stroke-width: 0.8"/>
      </g>
     </g>
     <g id="text_43">
      <!-- 12 -->
      <g transform="translate(562.22233 722.192118) scale(0.1 -0.1)">
       <use xlink:href="#DejaVuSans-31"/>
       <use xlink:href="#DejaVuSans-32" transform="translate(63.623047 0)"/>
      </g>
     </g>
    </g>
    <g id="text_44">
     <!-- Voltage -->
     <g transform="translate(302.951875 735.870243) scale(0.1 -0.1)">
      <use xlink:href="#DejaVuSans-56"/>
      <use xlink:href="#DejaVuSans-6f" transform="translate(60.658203 0)"/>
      <use xlink:href="#DejaVuSans-6c" transform="translate(121.839844 0)"/>
      <use xlink:href="#DejaVuSans-74" transform="translate(149.623047 0)"/>
      <use xlink:href="#DejaVuSans-61" transform="translate(188.832031 0)"/>
      <use xlink:href="#DejaVuSans-67" transform="translate(250.111328 0)"/>
      <use xlink:href="#DejaVuSans-65" transform="translate(313.587891 0)"/>
     </g>
    </g>
   </g>
   <g id="matplotlib.axis_6">
    <g id="ytick_13">
     <g id="line2d_75">
      <path d="M 50.14375 699.291756 
L 593.2725 699.291756 
" clip-path="url(#pb30b1b4d43)" style="fill: none; stroke: #b0b0b0; stroke-width: 0.8; stroke-linecap: square"/>
     </g>
     <g id="line2d_76">
      <g>
       <use xlink:href="#md478b695c7" x="50.14375" y="699.291756" style="stroke: #000000; stroke-width: 0.8"/>
      </g>
     </g>
     <g id="text_45">
      <!-- 0 -->
      <g transform="translate(36.78125 703.090975) scale(0.1 -0.1)">
       <use xlink:href="#DejaVuSans-30"/>
      </g>
     </g>
    </g>
    <g id="ytick_14">
     <g id="line2d_77">
      <path d="M 50.14375 669.621416 
L 593.2725 669.621416 
" clip-path="url(#pb30b1b4d43)" style="fill: none; stroke: #b0b0b0; stroke-width: 0.8; stroke-linecap: square"/>
     </g>
     <g id="line2d_78">
      <g>
       <use xlink:href="#md478b695c7" x="50.14375" y="669.621416" style="stroke: #000000; stroke-width: 0.8"/>
      </g>
     </g>
     <g id="text_46">
      <!-- 20 -->
      <g transform="translate(30.41875 673.420635) scale(0.1 -0.1)">
       <use xlink:href="#DejaVuSans-32"/>
       <use xlink:href="#DejaVuSans-30" transform="translate(63.623047 0)"/>
      </g>
     </g>
    </g>
    <g id="ytick_15">
     <g id="line2d_79">
      <path d="M 50.14375 639.951076 
L 593.2725 639.951076 
" clip-path="url(#pb30b1b4d43)" style="fill: none; stroke: #b0b0b0; stroke-width: 0.8; stroke-linecap: square"/>
     </g>
     <g id="line2d_80">
      <g>
       <use xlink:href="#md478b695c7" x="50.14375" y="639.951076" style="stroke: #000000; stroke-width: 0.8"/>
      </g>
     </g>
     <g id="text_47">
      <!-- 40 -->
      <g transform="translate(30.41875 643.750295) scale(0.1 -0.1)">
       <use xlink:href="#DejaVuSans-34"/>
       <use xlink:href="#DejaVuSans-30" transform="translate(63.623047 0)"/>
      </g>
     </g>
    </g>
    <g id="ytick_16">
     <g id="line2d_81">
      <path d="M 50.14375 610.280736 
L 593.2725 610.280736 
" clip-path="url(#pb30b1b4d43)" style="fill: none; stroke: #b0b0b0; stroke-width: 0.8; stroke-linecap: square"/>
     </g>
     <g id="line2d_82">
      <g>
       <use xlink:href="#md478b695c7" x="50.14375" y="610.280736" style="stroke: #000000; stroke-width: 0.8"/>
      </g>
     </g>
     <g id="text_48">
      <!-- 60 -->
      <g transform="translate(30.41875 614.079955) scale(0.1 -0.1)">
       <use xlink:href="#DejaVuSans-36"/>
       <use xlink:href="#DejaVuSans-30" transform="translate(63.623047 0)"/>
      </g>
     </g>
    </g>
    <g id="ytick_17">
     <g id="line2d_83">
      <path d="M 50.14375 580.610396 
L 593.2725 580.610396 
" clip-path="url(#pb30b1b4d43)" style="fill: none; stroke: #b0b0b0; stroke-width: 0.8; stroke-linecap: square"/>
     </g>
     <g id="line2d_84">
      <g>
       <use xlink:href="#md478b695c7" x="50.14375" y="580.610396" style="stroke: #000000; stroke-width: 0.8"/>
      </g>
     </g>
     <g id="text_49">
      <!-- 80 -->
      <g transform="translate(30.41875 584.409615) scale(0.1 -0.1)">
       <use xlink:href="#DejaVuSans-38"/>
       <use xlink:href="#DejaVuSans-30" transform="translate(63.623047 0)"/>
      </g>
     </g>
    </g>
    <g id="ytick_18">
     <g id="line2d_85">
      <path d="M 50.14375 550.940056 
L 593.2725 550.940056 
" clip-path="url(#pb30b1b4d43)" style="fill: none; stroke: #b0b0b0; stroke-width: 0.8; stroke-linecap: square"/>
     </g>
     <g id="line2d_86">
      <g>
       <use xlink:href="#md478b695c7" x="50.14375" y="550.940056" style="stroke: #000000; stroke-width: 0.8"/>
      </g>
     </g>
     <g id="text_50">
      <!-- 100 -->
      <g transform="translate(24.05625 554.739275) scale(0.1 -0.1)">
       <use xlink:href="#DejaVuSans-31"/>
       <use xlink:href="#DejaVuSans-30" transform="translate(63.623047 0)"/>
       <use xlink:href="#DejaVuSans-30" transform="translate(127.246094 0)"/>
      </g>
     </g>
    </g>
    <g id="text_51">
     <!-- Speed -->
     <g transform="translate(17.976562 631.948294) rotate(-90) scale(0.1 -0.1)">
      <defs>
       <path id="DejaVuSans-53" d="M 3425 4513 
L 3425 3897 
Q 3066 4069 2747 4153 
Q 2428 4238 2131 4238 
Q 1616 4238 1336 4038 
Q 1056 3838 1056 3469 
Q 1056 3159 1242 3001 
Q 1428 2844 1947 2747 
L 2328 2669 
Q 3034 2534 3370 2195 
Q 3706 1856 3706 1288 
Q 3706 609 3251 259 
Q 2797 -91 1919 -91 
Q 1588 -91 1214 -16 
Q 841 59 441 206 
L 441 856 
Q 825 641 1194 531 
Q 1563 422 1919 422 
Q 2459 422 2753 634 
Q 3047 847 3047 1241 
Q 3047 1584 2836 1778 
Q 2625 1972 2144 2069 
L 1759 2144 
Q 1053 2284 737 2584 
Q 422 2884 422 3419 
Q 422 4038 858 4394 
Q 1294 4750 2059 4750 
Q 2388 4750 2728 4690 
Q 3069 4631 3425 4513 
z
" transform="scale(0.015625)"/>
       <path id="DejaVuSans-64" d="M 2906 2969 
L 2906 4863 
L 3481 4863 
L 3481 0 
L 2906 0 
L 2906 525 
Q 2725 213 2448 61 
Q 2172 -91 1784 -91 
Q 1150 -91 751 415 
Q 353 922 353 1747 
Q 353 2572 751 3078 
Q 1150 3584 1784 3584 
Q 2172 3584 2448 3432 
Q 2725 3281 2906 2969 
z
M 947 1747 
Q 947 1113 1208 752 
Q 1469 391 1925 391 
Q 2381 391 2643 752 
Q 2906 1113 2906 1747 
Q 2906 2381 2643 2742 
Q 2381 3103 1925 3103 
Q 1469 3103 1208 2742 
Q 947 2381 947 1747 
z
" transform="scale(0.015625)"/>
      </defs>
      <use xlink:href="#DejaVuSans-53"/>
      <use xlink:href="#DejaVuSans-70" transform="translate(63.476562 0)"/>
      <use xlink:href="#DejaVuSans-65" transform="translate(126.953125 0)"/>
      <use xlink:href="#DejaVuSans-65" transform="translate(188.476562 0)"/>
      <use xlink:href="#DejaVuSans-64" transform="translate(250 0)"/>
     </g>
    </g>
   </g>
   <g id="line2d_87">
    <path d="M 74.83142 699.291756 
L 78.946032 699.291756 
L 83.060644 699.291756 
L 87.175256 699.291756 
L 91.289867 699.136811 
L 95.404479 699.291756 
L 99.519091 699.291756 
L 103.633703 699.291756 
L 107.748314 699.291756 
L 111.862926 699.230767 
L 115.977538 699.123624 
L 120.09215 699.291756 
L 124.206761 699.291756 
L 128.321373 699.014833 
L 132.435985 696.4467 
L 136.550597 697.05659 
L 140.665208 695.907689 
L 144.77982 694.36648 
L 148.894432 689.836807 
L 153.009044 689.70329 
L 157.123655 688.120873 
L 161.238267 686.12472 
L 165.352879 684.197802 
L 169.467491 682.547789 
L 173.582102 680.942298 
L 177.696714 680.154387 
L 181.811326 679.132407 
L 185.925938 677.340645 
L 190.040549 675.367567 
L 194.155161 673.432408 
L 198.269773 671.261533 
L 202.384384 671.56647 
L 206.498996 669.883494 
L 210.613608 668.137899 
L 214.72822 666.631314 
L 218.842831 664.748894 
L 222.957443 662.897791 
L 227.072055 662.958778 
L 231.186667 661.435696 
L 235.301278 659.085152 
L 239.41589 657.504376 
L 243.530502 655.529651 
L 247.645114 653.69503 
L 251.759725 654.031299 
L 255.874337 652.544489 
L 259.988949 650.881303 
L 264.103561 649.104376 
L 268.218172 648.088983 
L 272.332784 645.778005 
L 276.447396 646.036789 
L 280.562008 644.297781 
L 284.676619 642.687334 
L 288.791231 641.126348 
L 292.905843 638.96206 
L 297.020455 637.770321 
L 301.135066 637.364817 
L 305.249678 635.35876 
L 309.36429 633.519199 
L 313.478902 631.42744 
L 317.593513 630.057665 
L 321.708125 628.389524 
L 325.822737 628.368102 
L 329.937348 626.263154 
L 334.05196 624.698875 
L 338.166572 622.643373 
L 342.281184 621.283492 
L 346.395795 621.588444 
L 350.510407 620.002713 
L 354.625019 617.685133 
L 358.739631 615.660963 
L 362.854242 614.493925 
L 366.968854 611.983487 
L 371.083466 610.20656 
L 375.198078 610.349972 
L 379.312689 608.843371 
L 383.427301 606.791178 
L 387.541913 605.573032 
L 391.656525 603.519192 
L 395.771136 601.519738 
L 399.885748 600.202701 
L 404.00036 599.254912 
L 408.114972 598.08458 
L 412.229583 596.030725 
L 416.344195 594.454903 
L 420.458848 592.677991 
L 424.573419 592.351603 
L 428.68803 591.1516 
L 432.802642 589.221396 
L 436.917254 587.518631 
L 441.031907 586.124125 
L 445.146477 583.905451 
L 449.261089 583.654899 
L 453.375701 582.118658 
L 457.490313 580.176883 
L 461.604965 578.408204 
L 465.719536 577.193367 
L 469.834148 574.579084 
L 473.948759 575.076878 
L 478.063371 573.088965 
L 482.178024 570.924677 
L 486.292595 569.793881 
L 490.407206 567.370823 
L 494.521818 568.478506 
L 498.63643 567.029644 
L 502.751042 563.663692 
L 506.865653 563.484008 
L 510.980265 561.400498 
L 515.094877 558.995554 
L 519.209489 557.268087 
L 523.3241 557.533473 
L 527.438712 555.308198 
L 531.553324 553.404356 
L 535.667936 552.487854 
L 539.782547 548.005956 
L 543.897159 548.805424 
L 548.011771 549.861984 
L 552.126383 545.706505 
L 556.240994 545.03729 
L 560.355606 542.47407 
L 564.470218 541.03847 
L 568.58483 539.508668 
" clip-path="url(#pb30b1b4d43)" style="fill: none; stroke: #0000ff; stroke-width: 1.5; stroke-linecap: square"/>
   </g>
   <g id="line2d_88">
    <path d="M 74.83142 699.291756 
L 78.946032 699.291756 
L 83.060644 699.291756 
L 87.175256 699.229119 
L 91.289867 699.291756 
L 95.404479 699.291756 
L 99.519091 699.291756 
L 103.633703 699.199449 
L 107.748314 698.920877 
L 111.862926 699.291756 
L 115.977538 695.71648 
L 120.09215 693.830765 
L 124.206761 690.8456 
L 128.321373 690.680765 
L 132.435985 689.424721 
L 136.550597 688.539554 
L 140.665208 686.423073 
L 144.77982 684.426916 
L 148.894432 682.430755 
L 153.009044 683.040658 
L 157.123655 680.943944 
L 161.238267 678.425259 
L 165.352879 676.16208 
L 169.467491 674.469223 
L 173.582102 672.992293 
L 177.696714 673.195046 
L 181.811326 671.882964 
L 185.925938 669.540639 
L 190.040549 666.896685 
L 194.155161 665.053831 
L 198.269773 663.026352 
L 202.384384 663.049436 
L 206.498996 661.354933 
L 210.613608 659.79724 
L 214.72822 657.825809 
L 218.842831 655.854378 
L 222.957443 654.357673 
L 227.072055 654.153274 
L 231.186667 652.499983 
L 235.301278 651.042843 
L 239.41589 648.466464 
L 243.530502 646.612068 
L 247.645114 645.248879 
L 251.759725 644.853269 
L 255.874337 642.957676 
L 259.988949 641.507122 
L 264.103561 639.837335 
L 268.218172 638.297786 
L 272.332784 636.885151 
L 276.447396 636.911513 
L 280.562008 634.811506 
L 284.676619 633.327989 
L 288.791231 631.587349 
L 292.905843 630.087335 
L 297.020455 628.091189 
L 301.135066 627.956011 
L 305.249678 626.586235 
L 309.36429 624.032954 
L 313.478902 622.199965 
L 317.593513 620.594473 
L 321.708125 618.710421 
L 325.822737 618.932934 
L 329.937348 617.230183 
L 334.05196 615.578539 
L 338.166572 613.251064 
L 342.281184 611.706559 
L 346.395795 611.541726 
L 350.510407 609.713706 
L 354.625019 608.281282 
L 358.739631 606.2703 
L 362.854242 604.52469 
L 366.968854 602.297768 
L 371.083466 600.112058 
L 375.198078 600.489524 
L 379.312689 599.198864 
L 383.427301 597.575229 
L 387.541913 595.758752 
L 391.656525 593.56644 
L 395.771136 592.556001 
L 399.885748 591.639514 
L 404.00036 589.916988 
L 408.114972 588.623035 
L 412.229583 586.590631 
L 416.344195 584.366988 
L 420.458848 582.939518 
L 424.573419 582.822468 
L 428.68803 581.276332 
L 432.802642 579.74337 
L 436.917254 578.708201 
L 441.031907 576.392253 
L 445.146477 574.475237 
L 449.261089 575.159287 
L 453.375701 573.351058 
L 457.490313 571.282368 
L 461.604965 569.111493 
L 465.719536 567.25545 
L 469.834148 565.806528 
L 473.948759 565.094455 
L 478.063371 564.003239 
L 482.178024 562.867533 
L 486.292595 561.69554 
L 490.407206 559.821383 
L 494.521818 559.376313 
L 498.63643 557.52521 
L 502.751042 555.898311 
L 506.865653 554.988411 
L 510.980265 553.237846 
L 515.094877 550.628518 
L 519.209489 548.879599 
L 523.3241 549.651028 
L 527.438712 547.918577 
L 531.553324 546.125153 
L 535.667936 544.340037 
L 539.782547 544.04823 
L 543.897159 541.508152 
L 548.011771 540.781229 
L 552.126383 539.548278 
L 556.240994 537.530694 
L 560.355606 536.543414 
L 564.470218 535.313727 
L 568.58483 533.25327 
" clip-path="url(#pb30b1b4d43)" style="fill: none; stroke: #ffa500; stroke-width: 1.5; stroke-linecap: square"/>
   </g>
   <g id="patch_15">
    <path d="M 50.14375 707.593681 
L 50.14375 524.951346 
" style="fill: none; stroke: #000000; stroke-width: 0.8; stroke-linejoin: miter; stroke-linecap: square"/>
   </g>
   <g id="patch_16">
    <path d="M 593.2725 707.593681 
L 593.2725 524.951346 
" style="fill: none; stroke: #000000; stroke-width: 0.8; stroke-linejoin: miter; stroke-linecap: square"/>
   </g>
   <g id="patch_17">
    <path d="M 50.14375 707.593681 
L 593.2725 707.593681 
" style="fill: none; stroke: #000000; stroke-width: 0.8; stroke-linejoin: miter; stroke-linecap: square"/>
   </g>
   <g id="patch_18">
    <path d="M 50.14375 524.951346 
L 593.2725 524.951346 
" style="fill: none; stroke: #000000; stroke-width: 0.8; stroke-linejoin: miter; stroke-linecap: square"/>
   </g>
   <g id="text_52">
    <!-- Speed Comparison -->
    <g transform="translate(265.06625 518.951346) scale(0.12 -0.12)">
     <use xlink:href="#DejaVuSans-53"/>
     <use xlink:href="#DejaVuSans-70" transform="translate(63.476562 0)"/>
     <use xlink:href="#DejaVuSans-65" transform="translate(126.953125 0)"/>
     <use xlink:href="#DejaVuSans-65" transform="translate(188.476562 0)"/>
     <use xlink:href="#DejaVuSans-64" transform="translate(250 0)"/>
     <use xlink:href="#DejaVuSans-20" transform="translate(313.476562 0)"/>
     <use xlink:href="#DejaVuSans-43" transform="translate(345.263672 0)"/>
     <use xlink:href="#DejaVuSans-6f" transform="translate(415.087891 0)"/>
     <use xlink:href="#DejaVuSans-6d" transform="translate(476.269531 0)"/>
     <use xlink:href="#DejaVuSans-70" transform="translate(573.681641 0)"/>
     <use xlink:href="#DejaVuSans-61" transform="translate(637.158203 0)"/>
     <use xlink:href="#DejaVuSans-72" transform="translate(698.4375 0)"/>
     <use xlink:href="#DejaVuSans-69" transform="translate(739.550781 0)"/>
     <use xlink:href="#DejaVuSans-73" transform="translate(767.333984 0)"/>
     <use xlink:href="#DejaVuSans-6f" transform="translate(819.433594 0)"/>
     <use xlink:href="#DejaVuSans-6e" transform="translate(880.615234 0)"/>
    </g>
   </g>
   <g id="legend_3">
    <g id="patch_19">
     <path d="M 57.14375 562.307596 
L 150.00625 562.307596 
Q 152.00625 562.307596 152.00625 560.307596 
L 152.00625 531.951346 
Q 152.00625 529.951346 150.00625 529.951346 
L 57.14375 529.951346 
Q 55.14375 529.951346 55.14375 531.951346 
L 55.14375 560.307596 
Q 55.14375 562.307596 57.14375 562.307596 
z
" style="fill: #ffffff; opacity: 0.8; stroke: #cccccc; stroke-linejoin: miter"/>
    </g>
    <g id="line2d_89">
     <path d="M 59.14375 538.049783 
L 69.14375 538.049783 
L 79.14375 538.049783 
" style="fill: none; stroke: #0000ff; stroke-width: 1.5; stroke-linecap: square"/>
    </g>
    <g id="text_53">
     <!-- Left Speed -->
     <g transform="translate(87.14375 541.549783) scale(0.1 -0.1)">
      <use xlink:href="#DejaVuSans-4c"/>
      <use xlink:href="#DejaVuSans-65" transform="translate(53.962891 0)"/>
      <use xlink:href="#DejaVuSans-66" transform="translate(115.486328 0)"/>
      <use xlink:href="#DejaVuSans-74" transform="translate(148.941406 0)"/>
      <use xlink:href="#DejaVuSans-20" transform="translate(188.150391 0)"/>
      <use xlink:href="#DejaVuSans-53" transform="translate(219.9375 0)"/>
      <use xlink:href="#DejaVuSans-70" transform="translate(283.414062 0)"/>
      <use xlink:href="#DejaVuSans-65" transform="translate(346.890625 0)"/>
      <use xlink:href="#DejaVuSans-65" transform="translate(408.414062 0)"/>
      <use xlink:href="#DejaVuSans-64" transform="translate(469.9375 0)"/>
     </g>
    </g>
    <g id="line2d_90">
     <path d="M 59.14375 552.727908 
L 69.14375 552.727908 
L 79.14375 552.727908 
" style="fill: none; stroke: #ffa500; stroke-width: 1.5; stroke-linecap: square"/>
    </g>
    <g id="text_54">
     <!-- Right Speed -->
     <g transform="translate(87.14375 556.227908) scale(0.1 -0.1)">
      <use xlink:href="#DejaVuSans-52"/>
      <use xlink:href="#DejaVuSans-69" transform="translate(69.482422 0)"/>
      <use xlink:href="#DejaVuSans-67" transform="translate(97.265625 0)"/>
      <use xlink:href="#DejaVuSans-68" transform="translate(160.742188 0)"/>
      <use xlink:href="#DejaVuSans-74" transform="translate(224.121094 0)"/>
      <use xlink:href="#DejaVuSans-20" transform="translate(263.330078 0)"/>
      <use xlink:href="#DejaVuSans-53" transform="translate(295.117188 0)"/>
      <use xlink:href="#DejaVuSans-70" transform="translate(358.59375 0)"/>
      <use xlink:href="#DejaVuSans-65" transform="translate(422.070312 0)"/>
      <use xlink:href="#DejaVuSans-65" transform="translate(483.59375 0)"/>
      <use xlink:href="#DejaVuSans-64" transform="translate(545.117188 0)"/>
     </g>
    </g>
   </g>
  </g>
 </g>
 <defs>
  <clipPath id="pe296b2dd07">
   <rect x="50.14375" y="22.318125" width="543.12875" height="182.642335"/>
  </clipPath>
  <clipPath id="pa37800425e">
   <rect x="50.14375" y="273.634735" width="543.12875" height="182.642335"/>
  </clipPath>
  <clipPath id="pb30b1b4d43">
   <rect x="50.14375" y="524.951346" width="543.12875" height="182.642335"/>
  </clipPath>
 </defs>
</svg>
