<?xml version="1.0" encoding="UTF-8" standalone="no"?>
<!-- Created with Inkscape (http://www.inkscape.org/) -->

<svg
   width="480"
   height="240"
   viewBox="0 0 480 240"
   version="1.1"
   id="svg5"
   xml:space="preserve"
   xmlns="http://www.w3.org/2000/svg"
   xmlns:svg="http://www.w3.org/2000/svg"><defs
     id="defs2" /><g
     id="layer1"><rect
       style="vector-effect:non-scaling-stroke;fill:#000000;stroke:none;stroke-width:0.50813;stroke-dasharray:none;-inkscape-stroke:hairline"
       id="rect234"
       width="480"
       height="240"
       x="0"
       y="0" /><path
       d="m 374.06982,92.367024 c 15.26169,0 27.63298,12.371286 27.63298,27.632976 0,15.26169 -12.37129,27.63298 -27.63298,27.63298 -15.26169,0 -27.63297,-12.37129 -27.63297,-27.63298 0,-15.26169 12.37128,-27.632976 27.63297,-27.632976 m 0,13.816486 h -5.52659 a 2.7632976,2.7632976 0 0 0 -2.7633,2.7633 v 22.10638 a 2.7632976,2.7632976 0 0 0 2.7633,2.7633 l 0.3233,-0.0193 a 2.7632976,2.7632976 0 0 0 2.43999,-2.74396 v -8.28989 h 2.7633 a 8.289895,8.289895 0 0 0 0,-16.57979 m 0,5.5266 a 2.7632976,2.7632976 0 0 1 0,5.52659 h -2.7633 v -5.52659 z"
       id="path3441"
       style="fill:#d40000;stroke-width:2.7633" /><path
       d="m 105.93018,92.367024 c 15.26169,0 27.63297,12.371286 27.63297,27.632976 0,15.26169 -12.37128,27.63298 -27.63297,27.63298 -15.261697,0 -27.632981,-12.37129 -27.632981,-27.63298 0,-15.26169 12.371284,-27.632976 27.632981,-27.632976 z m 2.76329,13.816486 h -5.52659 l -0.4145,0.0138 a 5.5265952,5.5265952 0 0 0 -5.112098,5.51278 2.7632976,2.7632976 0 0 0 5.454748,0.63556 l 0.0553,-0.31226 0.0166,-0.3233 h 5.52659 v 5.52659 h -5.52659 l -0.36752,0.0194 c -3.070025,0.33159 -3.188846,4.7805 -0.3537,5.42988 l 0.3537,0.058 0.36752,0.0194 h 5.52659 v 5.52659 h -5.52659 l -0.0194,-0.3233 a 2.7632976,2.7632976 0 0 0 -5.507248,0.3233 5.5265952,5.5265952 0 0 0 5.112098,5.51278 l 0.4145,0.0138 h 5.52659 l 0.4145,-0.0138 a 5.5265952,5.5265952 0 0 0 5.09552,-5.07894 l 0.0166,-0.43384 v -5.52659 l -0.0138,-0.4145 a 5.4934356,5.4934356 0 0 0 -0.46976,-1.84312 l -0.20725,-0.42002 -0.0525,-0.0884 0.0553,-0.0829 a 5.5542282,5.5542282 0 0 0 0.66871,-2.19682 l 0.0194,-0.48082 v -5.52659 l -0.0138,-0.4145 a 5.5265952,5.5265952 0 0 0 -5.07894,-5.09552 z"
       id="path3455"
       style="fill:#d40000;stroke-width:2.7633" /><path
       d="m 307.0349,92.367024 c 15.26169,0 27.63298,12.371286 27.63298,27.632976 0,15.26169 -12.37129,27.63298 -27.63298,27.63298 -15.26169,0 -27.63297,-12.37129 -27.63297,-27.63298 0,-15.26169 12.37128,-27.632976 27.63297,-27.632976 z m 2.7633,13.816486 h -5.5266 l -0.41449,0.0138 a 5.5265952,5.5265952 0 0 0 -5.1121,5.51278 2.7632976,2.7632976 0 0 0 5.45475,0.63556 l 0.0553,-0.31226 0.0166,-0.3233 h 5.5266 v 5.52659 h -5.5266 l -0.36751,0.0194 c -3.07003,0.33159 -3.18885,4.7805 -0.35371,5.42988 l 0.35371,0.058 0.36751,0.0194 h 5.5266 v 5.52659 h -5.5266 l -0.0193,-0.3233 a 2.7632976,2.7632976 0 0 0 -5.50725,0.3233 5.5265952,5.5265952 0 0 0 5.1121,5.51278 l 0.41449,0.0138 h 5.5266 l 0.41449,-0.0138 a 5.5265952,5.5265952 0 0 0 5.09552,-5.07894 l 0.0166,-0.43384 v -5.52659 l -0.0138,-0.4145 a 5.4934356,5.4934356 0 0 0 -0.46976,-1.84312 l -0.20725,-0.42002 -0.0525,-0.0884 0.0553,-0.0829 a 5.5542282,5.5542282 0 0 0 0.66872,-2.19682 l 0.0193,-0.48082 v -5.52659 l -0.0138,-0.4145 a 5.5265952,5.5265952 0 0 0 -5.07894,-5.09552 z"
       id="path3455-7"
       style="fill:#d40000;stroke-width:2.7633" /><path
       d="m 172.96509,92.367024 c 15.26169,0 27.63298,12.371286 27.63298,27.632976 0,15.26169 -12.37129,27.63298 -27.63298,27.63298 -15.26169,0 -27.63297,-12.37129 -27.63297,-27.63298 0,-15.26169 12.37128,-27.632976 27.63297,-27.632976 z m 5.5266,13.816486 H 167.4385 l -0.32331,0.0194 a 2.7632976,2.7632976 0 0 0 -2.42065,2.42064 l -0.0193,0.32331 0.0193,0.32331 a 2.7632976,2.7632976 0 0 0 2.42065,2.42064 l 0.32331,0.0194 h 7.51064 l -4.66445,18.6716 -0.0608,0.31778 a 2.7632976,2.7632976 0 0 0 5.32487,1.33191 l 0.0967,-0.30673 5.5266,-22.10638 0.058,-0.30949 a 2.7632976,2.7632976 0 0 0 -2.42617,-3.10871 z"
       id="path3469-5"
       style="fill:#d40000;stroke-width:2.7633" /><path
       d="m 240.00001,92.367024 c 15.26169,0 27.63298,12.371286 27.63298,27.632976 0,15.26169 -12.37129,27.63298 -27.63298,27.63298 -15.26169,0 -27.63297,-12.37129 -27.63297,-27.63298 0,-15.26169 12.37128,-27.632976 27.63297,-27.632976 z m 5.5266,13.816486 h -11.05319 l -0.32331,0.0194 a 2.7632976,2.7632976 0 0 0 -2.42065,2.42064 l -0.0193,0.32331 0.0193,0.32331 a 2.7632976,2.7632976 0 0 0 2.42065,2.42064 l 0.32331,0.0194 h 7.51064 l -4.66445,18.6716 -0.0608,0.31778 a 2.7632976,2.7632976 0 0 0 5.32487,1.33191 l 0.0967,-0.30673 5.5266,-22.10638 0.058,-0.30949 a 2.7632976,2.7632976 0 0 0 -2.42617,-3.10871 z"
       id="path3469-9"
       style="fill:#d40000;stroke-width:2.7633" /></g></svg>
